<?xml version="1.0" standalone="no"?>
<!DOCTYPE svg PUBLIC "-//W3C//DTD SVG 1.1//EN" "http://www.w3.org/Graphics/SVG/1.1/DTD/svg11.dtd">
<svg xmlns="http://www.w3.org/2000/svg">
<metadata>Copyright (C) 2014 by original authors @ fontello.com</metadata>
<defs>
<font id="navigateicons" horiz-adv-x="1000" >
<font-face font-family="navigateicons" font-weight="400" font-stretch="normal" units-per-em="1000" ascent="850" descent="-150" />
<missing-glyph horiz-adv-x="1000" />
<glyph glyph-name="add" unicode="&#xe800;" d="m11 217h355v-366h268v387l355 0v258h-365v355h-258v-366h-355v-268z" horiz-adv-x="1000" />
<glyph glyph-name="comment" unicode="&#xe801;" d="m990 187c0-63-54-114-121-114h-168l-347-223v223h-224c-67 0-122 51-122 114v549c0 63 55 114 122 114h739c67 0 121-51 121-114v-549l0 0z m-697 237h150v-154h113v163h150v109h-154v150h-109v-154h-150v-114l0 0z" horiz-adv-x="1000" />
<glyph glyph-name="left_arrow" unicode="&#xe802;" d="m997 156h-460v-227l-537 421 540 423v-229h460l-3-388z" horiz-adv-x="1000" />
<glyph glyph-name="right_arrow" unicode="&#xe803;" d="m3 546h460v227l537-421-540-423v229h-460l3 388z" horiz-adv-x="1000" />
<glyph glyph-name="scale" unicode="&#xe804;" d="m464-150h-268c-73 0-131 59-131 131v600c0 72 58 131 131 131h32c0 0-77-163 53-304 84-93 183-91 183-91v-467z m47 0h268c72 0 131 59 131 131v600c0 72-59 131-131 131h-32c0 0 76-163-53-304-84-93-183-91-183-91v-467z m224 753c0-137-111-247-248-247s-247 110-247 247 111 247 247 247 248-111 248-247z m-282 65c10 5 22 8 34 8 41 0 74-32 74-73 0-41-33-74-74-74s-73 33-73 74c0 12 3 24 8 34l-91 92c-28-35-44-78-44-126 0-111 90-201 200-201s201 90 201 201c0 111-90 201-201 201-47 0-90-17-125-44l91-92z" horiz-adv-x="1000" />
<glyph glyph-name="location" unicode="&#xe805;" d="m173 426c-8 28-12 57-12 88 0 186 151 336 336 336 186 0 336-150 336-336 0-44-8-87-24-126l-317-538-319 576z m324 303c-118 0-214-96-214-215s96-215 214-215c119 0 215 96 215 215s-96 215-215 215z" horiz-adv-x="1000" />
<glyph glyph-name="admin_settings" unicode="&#xe806;" d="m235 140c-203-8-235 32-235 32l2 45c15 66 69 85 69 85 88 25 81 41 81 41-118 40-121 98-121 98 63 18 58 73 58 73v109c0 0 10 100 149 100 139 0 139-110 139-110s-1-61 0-107 62-68 62-68c-7-62-123-85-123-85s-57-27-70-90c-12-63-11-123-11-123z m614 82c-36 0-66-29-66-64s30-65 66-65c35 0 64 29 64 65s-29 64-64 64z m-153-22c0 0 1 13 16 39 15 25 25 31 25 31l32-16c10 9 22 16 36 21l3 35c0 0 10 5 40 5 30 0 41-6 41-6l3-34c13-4 25-11 35-20l33 15c0 0 10-6 25-31 15-26 15-39 15-39l-28-20c1-7 2-15 2-22s-1-16-2-23l27-16c0 0 0-12-14-39-13-26-23-33-23-33l-34 13c-11-9-23-15-36-20l-3-33c0 0-11-6-41-6-30 0-40 5-40 5l-3 34c-13 5-25 12-36 21l-34-14c0 0-11 7-24 33-13 27-13 39-13 39l27 16c-1 7-2 15-2 23 0 7 1 14 2 21l-29 21z m-41-129h-398l5 162c0 0-2 76 92 103 94 28 164 57 164 70v76c0 0-66 88-70 96-4 7-13 49 9 60 0 0-9 37 0 80 9 42 57 97 157 97s151-77 151-109-17-66-10-68c8-1 25-14 26-33 2-26-18-50-50-68 0 0-27-59-33-61l-1-73c0 0 44-31 84-37 0 0-180-86-126-295z" horiz-adv-x="1000" />
<glyph glyph-name="admission" unicode="&#xe807;" d="m494-27h-469l6 191c0 0-2 89 108 122 111 32 193 67 193 82v89c0 0-78 104-82 113-4 9-15 59 11 72 0 0-11 43 0 93 11 50 67 115 184 115 118 0 178-91 178-128 0-37-19-78-11-80 9-2 29-18 31-39 2-31-22-59-59-81 0 0-32-69-39-71l-2-87c0 0 52-37 100-44 0 0-213-101-149-347z m480 92c0-119-96-215-215-215-118 0-215 96-215 215 0 119 97 215 215 215 119 0 215-96 215-215z m-353-43h98v-101h74v107h98v71h-101v98h-71v-101h-98v-74z" horiz-adv-x="1000" />
<glyph glyph-name="configuration" unicode="&#xe808;" d="m188 226c0 0-187 102-187 293 0 192 167 331 322 331 155 0 277-86 318-237h318c0 0 41-8 41-41 0-32 0-489 0-489s0-33-33-33c-32 0-330 0-330 0l73-130c0 0 21-33 5-53-17-21-41-17-41-17h-637c0 0-32 4-36 25-4 20 12 49 12 49l175 302z m159 257c21 0 41-9 41-9l25-44c0 0 0 102 0 138s36 41 36 41h106c-44 98-134 159-236 159-102 0-233-98-233-245 0-146 147-220 147-220s94 180 114 180z m257-543l-244 408-245-408h489z m310 192v395h-416v-244l90-151h326l0 0z" horiz-adv-x="1000" />
<glyph glyph-name="content_summary" unicode="&#xe809;" d="m775 221v-298c0-31-25-55-55-55h-665c-30 0-55 24-55 55v714c0 30 25 55 55 55h130v43h85c0 0 12 99 113 99 102 0 104-99 104-99h87l-2-43h166l-60-74h-108v-63h-388v63h-58c-24 0-43-19-43-43v-560c0-24 19-44 43-44h512c24 0 43 20 43 44v107l96 99z m-397 553c-30 0-55-24-55-55s25-55 55-55c31 0 56 24 56 55s-25 55-56 55z m-73-319l-128-122 285-310 538 550-146 120-392-414-157 176z" horiz-adv-x="1000" />
<glyph glyph-name="lock" unicode="&#xe80a;" d="m892 429v-472c0-59-48-107-107-107h-572c-59 0-108 48-108 107v472h115v145c0 0-8 276 279 276 276 0 276-236 276-236v-185h117z m-229 150c0 0-3 134-175 134-129 0-150-142-150-142v-134h319l6 142z m-128-465c20 12 34 34 34 60 0 38-32 69-70 69s-70-31-70-69c0-25 12-46 31-59v-111h76l-1 110z" horiz-adv-x="1000" />
<glyph glyph-name="search" unicode="&#xe80b;" d="m605 293c0 0 49 5 88-21 38-25 280-283 280-283s53-51 11-104c-50-62-107-20-107-20s-287 287-300 308c-13 21-12 80-12 80v1c-60-53-139-85-225-85-188 0-340 153-340 341 0 188 152 340 340 340 188 0 341-152 341-340 0-82-29-158-78-216l2-1z m-265 482c-146 0-265-118-265-265 0-147 119-266 265-266 147 0 266 119 266 266 0 147-119 265-266 265z" horiz-adv-x="1000" />
<glyph glyph-name="settings" unicode="&#xe80c;" d="m502 555c-114 0-207-92-207-206s93-207 207-207 207 93 207 207-93 206-207 206z m-484-70c0 0 1 41 49 122 48 81 79 101 79 101l102-52c34 28 73 51 115 67l11 110c0 0 33 17 127 17 94 0 130-19 130-19l8-107c42-16 80-38 114-65l103 49c0 0 31-20 79-101 48-81 49-122 49-122l-89-64c4-23 6-48 6-72 0-25-2-49-6-72l85-52c0 0-1-38-43-122-42-84-75-107-75-107l-109 43c-33-28-72-50-113-65l-9-105c0 0-36-19-130-19-94 0-127 17-127 17l-10 107c-42 16-81 38-115 66l-109-44c0 0-33 23-75 107s-43 122-43 122l87 53c-4 23-6 47-6 71 0 24 2 47 6 70l-91 66z" horiz-adv-x="1000" />
<glyph glyph-name="martini" unicode="&#xe80d;" d="m112 622h628l36 45c0 0-57 56-15 106 35 39 96-2 96-2l56 74c0 0 10 10 18 1 7-9-60-82-60-82s54-60 15-103c-43-46-96-2-96-2l-29-39h101c0 0 4-22-16-45-20-23-306-308-306-308s-19-18-19-34c0-16 0-268 0-268s-10-32 26-41c36-9 206-54 206-54s16-7 18-20h-565c0 0-2 16 16 22 18 5 207 52 207 52s27 3 27 41c0 42 0 266 0 266s-6 22-22 38c-16 16-302 300-302 300s-22 33-20 53z m493-173l113 147h-573l154-149 306 2z m77 2l148 144h-86l-116-144h54l0 0z" horiz-adv-x="1000" />
<glyph glyph-name="delete" unicode="&#xe80e;" d="m895 750h-265v73c0 15-13 27-28 27h-212c-16 0-28-12-28-27v-73h-266c-15 0-28-12-28-26v-58c0-15 13-27 28-27h799c16 0 28 12 28 27v58c0 14-12 26-28 26z m-718-821c2-44 43-79 91-79h456c47 0 88 35 91 79l50 649h-741l53-649z m457 77l30 419c1 21 20 39 44 39 14-1 25-5 33-13s13-19 12-30l-29-418c-1-22-21-40-45-40l-2 0c-12 1-23 6-31 14-8 8-12 18-12 29z m-182 417c0 22 20 40 44 40 25 0 44-18 44-40l0-419c0-22-20-40-44-40-25 0-45 18-45 40l1 419z m-202 28c8 8 19 12 33 13 24 0 44-18 45-39l29-419c1-11-4-21-12-29-8-8-19-13-31-14l-2 0c-24 0-43 18-44 40l-30 418c0 11 4 21 12 30z" horiz-adv-x="1000" />
<glyph glyph-name="allergies" unicode="&#xe80f;" d="m476-148c0 0-393-55-398 411 0 0 315-9 393-332l5-79z m32 0c0 0 393-55 397 411 0 0-314-9-392-332l-5-79z m-28 388c0 0-296-42-300 310 0 0 237-7 296-251l4-59z m24 0c0 0 296-42 300 310 0 0-237-7-296-251l-4-59z m-1 268c0 0-207 162 0 342 0 0 185-143 0-342z" horiz-adv-x="1000" />
<glyph glyph-name="back" unicode="&#xe810;" d="m535-150c0 0 233 179 206 447-27 267-222 389-222 389l107 164-534-134 225-442 99 130c0 0 103-42 134-119 31-76 73-267-15-435z" horiz-adv-x="1000" />
<glyph glyph-name="discharge" unicode="&#xe811;" d="m498-25h-469l6 191c0 0-2 89 108 122 111 32 194 67 194 82v89c0 0-79 104-83 113-4 9-15 59 11 72 0 0-11 43 0 93s67 115 184 115 178-91 178-128c0-37-19-78-11-80 9-2 29-18 31-39 2-31-22-59-59-81 0 0-32-69-39-71l-2-87c0 0 52-37 100-44 0 0-213-101-149-347z m480 92c0-119-96-215-215-215s-215 96-215 215 96 215 215 215 215-96 215-215z m-83-43v77h-270v-77h270z" horiz-adv-x="1000" />
<glyph glyph-name="message" unicode="&#xe812;" d="m22 709h956l-468-380-488 380z m978-716h-1000l352 377 158-113 140 113 350-377z m-998 672v-600l311 336-311 264z m991 0v-600l-310 336 310 264z" horiz-adv-x="1000" />
<glyph glyph-name="site_map" unicode="&#xe813;" d="m543 403h235v392h-566v-392h245v-91h-379l2-170h-80v-236h235v236h-80v93h305v-93h-80v-236h235v236h-72v93h297v-93h-75v-236h235v236h-80v165h-377v96z" horiz-adv-x="1000" />
<glyph glyph-name="stethescope" unicode="&#xe814;" d="m904 621v97h-2c-1 7-2 15-3 22h-3v5h-2v8h-3v6c-2 1-4 2-6 3 0 3-1 7-2 10-3 2-6 4-8 6v5l-14 11c-3 4-5 7-8 11h-5c-1 2-2 4-3 5h-6c-1 2-1 4-2 6-6 2-11 3-17 5v3h-5v3h-8v2h-8v3h-14v3h-8v3h-5v2h-9v3h-5v3c-11 1-22 2-33 2-4-5-6-2-10-5v-3c-4-2-8-5-11-8-1-4-2-7-3-11h-3v-27c5-6 9-13 14-19 8-2 22-11 32-8 11 3 32 18 47 14v-3h8v-3c3-1 7-2 11-3 0-1 1-3 2-5h6c1-2 1-4 2-5 6-5 11-9 17-14 17-24 19-53 19-95 0-30 5-90-3-114h-3v-8h-2v-5h-3c-1-4-2-8-3-11-2-1-4-2-5-3v-5c-7-6-13-11-19-17-7-7-13-14-19-21h-6c-2-3-3-6-5-8h-6c0-2-1-4-2-6-4-1-8-2-11-3-1-1-2-3-3-5-5-2-11-4-16-5v-3h-6v-3h-5v-3c-5-1-11-3-16-5v-3h-8v-2h-9v-3h-8v-3h-8v-3c-7 0-14-1-22-2v-3h-16c-26-8-71-8-97 0h-14v3h-14v2h-8v3h-11c-20 9-41 18-62 27-1 2-2 4-3 6-3 1-7 2-10 2v3c-3 1-6 2-9 3-1 2-1 3-2 5h-6c-2 3-3 6-5 8h-6c-6 8-12 15-19 22-4 4-9 7-13 11v5c-2 1-4 2-6 3-1 6-3 11-5 16h-3v6h-2c-8 18-3 62-3 87 0 25-5 81 3 100h2v5h3v6h3c1 3 2 7 2 11 2 1 4 1 6 2v6c3 2 7 5 11 8 1 2 2 4 2 5 10 7 23 8 30 17 8-1 17-2 25-3v-3h5v-3c5 0 11-1 16-2v-3c8 1 17 2 25 3 6 8 16 10 19 21h2v11h3v11h-3v11h-2v5h-3c-1 3-2 6-3 9-6 1-6 2-11 5v3h-8v2c-18 7-33-6-43-10h-8v-3h-6v-3h-13v-3h-11v-2h-5v-3h-9v-3h-5v-2h-5c-1-2-2-4-3-6h-6c0-2-1-3-2-5h-6c-2-4-5-8-8-11h-5l-6-6v-5c-3-3-7-5-11-8v-6c-1 0-3-1-5-2-1-3-2-6-3-8h-2c-6-17-11-33-17-49v-90c0-30-5-69 3-95 15-46 40-67 71-97 10-12 21-24 32-35h6c32-34 65-67 97-101 22-22 48-39 63-68h2v-5h3v-71c0-64 9-173-16-211-4-3-7-6-11-8-4-5-7-9-11-14h-5c-1-2-2-4-3-5h-6c-14-8-22-11-46-11h-19v2c-5 1-10 2-16 3v3c-4 1-7 2-11 3-1 1-2 3-2 5h-6c-1 2-2 4-3 5-5 5-10 9-16 14v5c-2 1-3 2-5 3-1 4-2 7-3 11h-3v5h-2c-1 9-2 17-3 25h-3v198h-3v13h-2c-1 6-2 11-3 17h-3c-2 5-3 11-5 16h-3v5c-2 1-3 2-5 3v6c-3 1-6 3-8 5v5c-2 1-4 2-6 3-3 5-7 9-11 14h-5c-2 2-4 5-6 8h-5c-1 2-2 3-3 5-5 2-11 4-16 6v2h-5v3c-7 1-13 2-19 3-11 3-43 10-60 5v-2h-14c-14-7-29-13-43-19-2-3-4-6-5-9h-6c-10-10-20-21-30-32v-6c-1 0-3-1-5-2v-6h-3c-1-3-2-7-2-11h-3c-4-7 1-8-6-13v-3h-11v-3h-8v-2c-5-2-11-4-16-6v-2h-5c-1-2-2-4-3-6h-5c-10-10-19-20-28-30v-5c-1-1-3-2-5-3-3-10-5-20-8-30h-3c-3-9 1-56 3-62h3v-8h2c2-6 4-11 6-16 1-1 3-2 5-3v-6c3-1 5-3 8-5 9-9 17-20 27-27 6-2 11-4 17-6v-2c6-1 12-2 19-3v-3h51v3h8v3h8v2h9v3h5c1 2 2 4 3 6h5c1 1 2 3 3 5h5c2 3 4 5 6 8 5 5 11 9 16 14v5c2 1 4 2 5 3v5c2 1 4 2 6 3v5h3c0 6 1 11 2 17h3v11h3c4 13-2 57-6 65h-2c-2 5-4 10-6 16h-3v5c-2 2-5 4-8 6v5c-2 1-3 2-5 3-4 4-7 9-11 13h-5c-2 3-4 6-6 9h-5c-8 4-13 9-25 10 6 26 38 47 63 55h43v-3c5-1 11-2 16-3v-2c4-1 8-2 11-3 1-2 2-4 3-6h5c1-1 2-3 3-5 5-4 11-9 16-14v-5c2-1 4-2 6-3 22-35 13-130 13-187v-54c21-69 66-121 160-117 17 1 42 10 55 16v3h5c33 21 55 54 68 95v25c8 29 3 91 3 127v81c0 12 1 24 2 36 19 18 38 36 57 54 44 44 87 89 130 133 29 29 63 54 79 95 10 25 5 72 5 106z m-566-98c-8 0-10 1-14 3 0 7 1 9 3 13h11v-3h2c0-7-1-9-2-13z m-3 184v-114c0-18 5-33-11-38-2 4-2 4-5 6v106c1 19 1 38 2 57 8 14 15 29 22 43 6 5 13 11 19 16 2 3 4 6 5 8h6c1 2 2 4 3 6 10 7 30 15 46 16v-16c-32-3-64-34-76-57-4-11-7-22-11-33z m-209-716h-19v3c-5 1-11 2-16 3v2c-6 2-11 4-17 6 0 2-1 4-2 5h-6c-3 5-7 9-11 14-1 1-3 2-5 3v5c-2 1-4 2-5 3-2 5-4 11-6 16h-2v5h-3v11c-3 7-6 30-3 41h3v8h3v8h2c2 6 4 11 6 16 2 2 5 4 8 6v5c2 2 5 4 8 6v2h5c2 3 4 6 6 9h5c1 1 2 3 3 5 4 1 9 2 13 3v2h9c-3-7-3-20-3-32-25-5-49-49-35-84h2c11-22 23-30 38-46 8-7 13-17 22-22v-3z m46 84c-5-4-2-6-5-10h-3c-5-6-9-11-14-17-11-2-36-12-46 0-7 2-6 1-8 8 5 0 9-1 14-2v-3c8 0 14 1 19 3-2 12-8 14-14 21h-3c0 5-1 9-2 14h-3c0 20 5 23 11 35 4 1 7 2 11 3v3c20 7 31-14 40-19 1-7 2-13 3-19h3c-1-6-2-11-3-17z m35 63c2-1 4-2 6-3v-5h3v-9h2v-5h3v-11h3v-19c-24 15-44 56-74 63 1 10 2 19 3 29 27-2 42-22 54-40z m46 135h-2v-2h-19v-3c-8-1-16-2-25-3v-2h-5v-3h-8c-1-2-2-4-3-6l-11-2c-2-3-3-6-5-8h-6c-1-3-3-6-5-9h-3v-5c-2-2-5-4-8-5v-6c-2-1-3-2-5-3v-5h-3c-1-4-2-7-3-11h-2c-3-16-6-32-9-49-7 1-9 1-13 3-1 55 19 83 51 106 2 3 4 5 6 8h5v3c6 2 11 3 17 5v3c5 1 10 2 16 3v2h13v3c16 0 19-1 27-5v-9z m28-8c-7 1-7 1-11 3-1 3-2 5-3 8h3v6c3 0 7 1 11 2 2-3 1-3 5-5-1-9-2-8-5-14z m179-388v-2c-3 0-6 1-9 2 0 3-1 6-2 8 3 3 3 2 5 6 7-1 7-1 11-3-1-8 0-7-5-11z m141 87v-11h-3v-5h-3v-8h-2v-6h-3v-5c-2-1-4-2-6-3v-5c-2-2-5-4-8-6-8-9-16-20-27-27-5-2-11-3-16-5v-3h-8v-3h-8v-2h-14v-3c-13 0-17 1-24 5 1 3 1 6 2 8 12 2 24 4 36 6v3c7 2 15 1 21 5l3 5h5c2 3 4 6 6 9h5c2 2 4 5 6 8h2v5c3 2 6 4 9 6 25 38 16 134 16 198 0 21-3 51 3 67h8c2-3 2-3 5-5v-157c0-26 1-52-5-71z m-11 252c0 7 1 7 3 11h10c1-2 2-5 3-8h-3v-5c-7 0-9 1-13 2z m114 158c-21-20-42-40-63-60-4-5-9-11-13-16-4-1-7-2-11-3v-3c-8-3-26-1-33 3-26 27-52 54-78 81 11-1 23-5 32-8h17v-2c22-1 45-2 67-3v3h30v2h16v3c10 3 19 0 25 5h11v-2z m-575-277v3c-4-1-7-2-11-3-2-10-2-9 0-19 10-2 9-2 19 0 1 6-1 2 3 6-1 9-3 11-11 13z" horiz-adv-x="1000" />
<glyph glyph-name="move" unicode="&#xe815;" d="m796 192l204 160-203 158-1-318z m-592 0l-204 160 203 158 1-318z m-1 203h607v-88h-607v88z m138-340l160-204 158 203-318 1z m0 592l160 204 158-203-318-1z m115 1h88v-607h-88v607z" horiz-adv-x="1000" />
<glyph glyph-name="download" unicode="&#xe816;" d="m646 849v-356h175l-325-415-327 418h177v355l300-2z m275-907c0-50-40-91-90-91h-661c-51 0-91 41-91 91l0 0c0 50 40 91 91 91h661c50 0 90-41 90-91l0 0z" horiz-adv-x="1000" />
<glyph glyph-name="bar_chart" unicode="&#xe817;" d="m0 851h75v-998h-75v998z m144-169h204v-813h-204v813z m268 159h204v-972h-204v972z m268-456h204v-516h-204v516z m-672-459h992v-75h-992v75z" horiz-adv-x="1000" />
<glyph glyph-name="blood_drop" unicode="&#xe818;" d="m497 850c0 0-50-161-217-447 0 0-150-261-19-448 0 0 112-105 242-105 131 0 317 112 305 310-13 199-311 628-311 690z m-81-683c-12-156 81-236 81-236-124 12-180 80-205 192-25 112 199 460 199 460s-62-261-75-416z" horiz-adv-x="1000" />
<glyph glyph-name="duplicate_2" unicode="&#xe819;" d="m291 685h-111v-654h534v111h-423v543z m-180-181h-110v-653h534v110h-424v543z m888-293h-639v640h639v-640z m-280 280h141v96h-141v141h-95v-141h-140v-96h140v-139h95v139z" horiz-adv-x="1000" />
<glyph glyph-name="needle" unicode="&#xe81a;" d="m999 696l-153 150c-7 7-16 3-26 3-7-7-14-13-21-19-15-17-2-32-2-32 6-6 25-26 35-35l-125-130-87 79c-24 20-43-2-50-9l-419-422c-5-13 2-26 2-26 3-6 28-31 35-34l-32-32c-13-12-5-25-5-31 3-8 36-42 44-46l-193-262 253 195 44-39c17-13 22-5 28-5 8 3 35 29 39 37 19-16 40-53 63-37l438 431c18 19 2 34 2 34l-86 86 125 130c30-25 35-47 63-37 5 2 10 7 14 11 5 5 9 6 11 14 7 7 3 16 3 26z m-580-605l-104 107 49 48 54-56 27 26-51 53 46 49c17-18 35-34 52-51l37 38c-17 17-35 34-53 51l43 45 58-53 33 34-59 52 42 40 56-49 32 30-55 48 46 49 109-100-362-361z" horiz-adv-x="1000" />
<glyph glyph-name="system_admin" unicode="&#xe81b;" d="m762 142c-47 0-85-38-85-86s38-85 85-85 86 38 86 85-38 86-86 86z m-200-29c0 0 1 17 20 50 20 34 33 42 33 42l42-21c14 11 30 21 48 27l4 46c0 0 14 7 53 7 39 0 54-8 54-8l3-44c18-7 33-16 47-27l43 20c0 0 13-8 33-42s20-50 20-50l-37-27c2-9 3-19 3-30 0-10-1-20-3-29l35-22c0 0 0-15-17-50-18-35-32-45-32-45l-44 18c-14-11-30-20-47-27l-4-43c0 0-15-8-54-8-39 0-53 7-53 7l-4 44c-17 7-33 16-47 28l-45-19c0 0-14 10-32 45-17 35-17 50-17 50l36 22c-2 10-3 19-3 29 0 10 1 20 3 29l-38 28z m-57-163h-481l5 196c0 0-2 92 112 125 113 34 198 69 198 85v91c0 0-80 107-85 116-4 9-15 60 11 73 0 0-11 45 0 96 11 51 69 118 190 118s182-93 182-131-20-80-11-83 30-17 31-40c2-31-22-60-60-82 0 0-33-71-40-74l-2-89c0 0 54-37 102-44 0 0-218-104-152-357z" horiz-adv-x="1000" />
<glyph glyph-name="notifications" unicode="&#xe81c;" d="m0 714l364-864 91 45-364 864-91-45z m818 45c-195-84-272-45-409 46-136 90-273 0-273 0l228-500c214 142 311-46 409-91 97-46 227 45 227 45l-182 500z" horiz-adv-x="1000" />
<glyph glyph-name="blood_glucose" unicode="&#xe81d;" d="m683 594h55c94 0 171-60 171-154v-436c0-95-71-154-166-154h-447c-95 0-165 59-165 154v436c0 94 76 154 170 154h52v93c0 0 11 163 170 163 160 0 160-163 160-163v-93z m-163 199c-41 0-74-33-74-74s33-74 74-74c40 0 74 33 74 74s-34 74-74 74z m-4-258c0 0-31-99-133-273 0 0-91-160-12-274 0 0 69-64 149-64s193 68 185 190c-7 121-189 383-189 421z m-4-163c0 0-137-213-122-281 16-68 50-110 126-118 0 0-57 50-50 145 8 94 46 254 46 254z" horiz-adv-x="1000" />
<glyph glyph-name="tasks" unicode="&#xe81e;" d="m933 730h-577c-37 0-68-35-68-79s31-80 68-80h577c37 0 67 36 67 80s-30 79-67 79z m-777 55v-243h-68v159c-10-8-21-15-31-20-10-5-23-10-39-15v55c23 7 41 16 53 26 13 10 23 23 30 38h55z m777-363h-577c-37 0-68-36-68-80s31-79 68-79h577c37 0 67 36 67 79s-30 80-67 80z m-733-189h-200c2 20 9 38 21 56s33 38 65 61c20 15 32 26 38 33 5 8 8 15 8 22 0 7-3 13-8 18-6 6-13 8-21 8-8 0-15-3-21-8-5-5-9-15-10-28l-67 5c3 19 7 34 14 44 7 11 17 19 30 24 13 6 30 9 52 9 24 0 42-3 55-8 13-6 23-14 31-25 7-11 11-23 11-37 0-15-4-29-13-42-8-13-24-28-46-44-14-9-23-15-27-19-5-4-10-9-16-15h104v-54z m733-120h-577c-37 0-68-35-68-79s31-80 68-80h577c37 0 67 36 67 80s-30 79-67 79z m-863-18l-63 11c5 20 15 36 30 46 15 11 36 16 63 16 31 0 54-6 68-17 14-12 21-27 21-44 0-10-3-20-9-28-6-9-14-16-26-22 10-3 17-5 22-8 8-5 14-12 18-20 5-8 7-17 7-28 0-14-4-28-11-41-7-12-18-22-32-29-13-7-31-10-54-10-21 0-39 2-51 7s-23 13-31 23-15 22-19 37l67 9c2-14 6-23 12-28 5-5 12-8 21-8 9 0 16 3 22 10 6 6 9 15 9 26 0 11-3 20-9 26-5 6-13 9-23 9-5 0-12-1-22-4l4 48c4-1 6-1 9-1 8 0 16 3 21 8 6 6 9 12 9 20 0 7-2 13-6 17-5 5-11 7-18 7-8 0-15-2-20-7-4-5-8-13-9-25z" horiz-adv-x="1000" />
<glyph glyph-name="blood_pressure" unicode="&#xe81f;" d="m-2 669v-419c0-39 33-71 73-71h37l4 562h-41c-40 0-73-32-73-72z m923-138c0 0 4 27-19 27-23 0-36-22-50-45-14-22-64-67-64-120s32-94 73-121v-147c0 0-36-156-178-156-142 0-187 152-187 152v58h160c40 0 73 32 73 71v419c0 40-33 72-73 72h-443c-41 0-73-32-73-72v-419c0-39 32-71 73-71h155v62h50v-129c0 0 23-210 265-210 242 0 242 201 242 201v178c0 0 73 23 73 121s-77 93-77 129z m-496-201c-78 0-142 62-142 139s64 138 142 138c78 0 142-62 142-138s-64-139-142-139z m-34 54l119 156-165-116 46-40z" horiz-adv-x="1000" />
<glyph glyph-name="edit" unicode="&#xe820;" d="m119-135c0 0-75-30-108 12-31 40 13 139 13 139l132 265 527 529c0 0 57 75 131 20 75-54 167-159 167-159s51-56-14-132c-88-102-566-546-566-546l-282-128z m52 66l238 118-53 52 402 408 58-57 26 28-209 211-29-30 52-52-411-406-53 49-112-215 91-106z m148 200l-44 45 409 405 47-49-412-401z" horiz-adv-x="1000" />
<glyph glyph-name="duplicate" unicode="&#xe821;" d="m201 646h-134v-795h650v134h-516v661z m548 205v-182h184l-184 182z m-57-230h231v-551h-639v781h408v-230z m-43-241h106v72h-106v106h-72v-106h-105v-72h105v-105h72v105z" horiz-adv-x="1000" />
<glyph glyph-name="pdf" unicode="&#xe822;" d="m216 24c0 0-16 57 149 130 0 0 29 25 89 200 0 0-49 89-45 142 5 53 39 70 62 67 22-4 63-21 53-96-9-76-22-94-15-112 8-19 82-121 102-124 0 0 58 19 107 14 48-4 78-21 74-59-4-38-49-52-71-50-21 2-53-2-125 45 0 0-123-24-188-59 0 0-14-14-20-27-7-12-53-98-108-110-58-12-64 36-64 39z m58 5c22 12 41 46 41 46-23-5-52-42-52-42 3-5 11-4 11-4z m435 153c42 0 36 8 36 8-4 16-76 8-76 8 1-11 40-16 40-16z m-244 335c-26-20 8-86 8-86 18 87-8 86-8 86z m89-300c-8 7-67 84-67 84-11-29-53-120-53-120 10 12 120 36 120 36z m-429-223v696c0 0-10 142 149 160h310c0 0 21 1 52-22 26-18 243-246 243-246s12-18 12-47 0-511 0-511 12-150-146-174h-485c0 0-117 8-135 144z m143-72c0 0 396 0 467 0 70 0 80 78 80 78s0 433 0 487c0 54-44 54-44 54s-83 0-139 0c-56 0-50 49-50 49s0 78 0 134c0 56-34 50-34 50s-170 0-262 0c-92 0-91-84-91-84v-672c0-84 73-96 73-96z" horiz-adv-x="1000" />
<glyph glyph-name="team" unicode="&#xe823;" d="m818 33h-640v49c0 0 38 126 228 152v55c0 0-69 42-69 186 0 145 160 164 160 164s154 1 154-164-73-186-73-186v-55c0 0 169-13 238-150l2-51z m-660 97h-160v41c0 0 32 107 194 129v47c0 0-58 35-58 158s135 139 135 139 52 0 86-41c0 0-63-48-63-137 0-88 63-187 63-187v-25c0 0-147-20-197-124z m681 0h159v41c0 0-32 107-194 129v47c0 0 59 35 59 158s-136 139-136 139-52 0-86-41c0 0 63-48 63-137 0-88-63-187-63-187v-25c0 0 147-20 198-124z" horiz-adv-x="1000" />
<glyph glyph-name="tools" unicode="&#xe824;" d="m972 603c-2 10-4 18-19 29l-14 7c-18 5-37-3-47-12-10-9-26-25-36-36l-109-124c-9-10-26-11-36-2l-128 113c-11 10-12 26-2 36l46 53c10 11 17 20 17 20-1 1 6 10 16 20l68 77c9 11 10 28 1 39l-7 9c-8 11-27 18-41 16-127 12-204-41-204-41s-123-78-131-211c-4-89 31-131 31-131 9-11 9-28 0-39l-332-352c0 0-67-77 35-179 101-102 167 0 167 0l337 358c9 11 27 15 41 11 0 0 152-55 263 51 110 105 84 288 84 288" horiz-adv-x="1000" />
<glyph glyph-name="pharmacy" unicode="&#xe825;" d="m957 660c55 52 62 190-46 190-108 0-141-144-184-236-42-92-157-180-157-180h213c13 118 118 174 174 226z m-436-809c459 0 459 524 459 524h-967c53-564 508-524 508-524z" horiz-adv-x="1000" />
<glyph glyph-name="elipses" unicode="&#xe826;" d="m236 357c0-65-53-118-118-118s-118 53-118 118c0 65 53 118 118 118s118-53 118-118z m371 0c0-65-52-118-117-118-66 0-118 53-118 118 0 65 52 118 118 118 65 0 117-53 117-118z m393 0c0-65-53-118-118-118s-118 53-118 118c0 65 53 118 118 118s118-53 118-118z" horiz-adv-x="1000" />
<glyph glyph-name="browse_desktop" unicode="&#xe827;" d="m61 662v141h382v-72h366v-64l-748-5z m441-250c-162-134-75-340-75-340h-355l-78 540 884-3-23-185c0 0-181 131-353-12z m480-414c22-20 7-32 7-32s-46-52-61-60c-15-8-28 1-28 1l-114 134c-31-19-66-29-104-29-110 0-199 89-199 199 0 110 89 200 199 200 110 0 199-90 199-200 0-36-9-70-26-99 0 0 118-105 127-114z m-300 351c-76 0-138-61-138-138s62-138 138-138c76 0 138 62 138 138s-62 138-138 138z" horiz-adv-x="1000" />
<glyph glyph-name="calendar" unicode="&#xe828;" d="m852 811h42c59 0 106-48 106-106v-711c0-58-47-106-106-106h-788c-58 0-106 48-106 106v711c0 58 48 106 106 106h28 718z m60-189h-824v-656h824v656z m-483-107c0-8-6-14-14-14h-45c-8 0-14 6-14 14v47c0 8 6 15 14 15h45c8 0 14-7 14-15v-47z m108 0c0-8-7-14-15-14h-45c-7 0-14 6-14 14v47c0 8 7 15 14 15h45c8 0 15-7 15-15v-47z m107 0c0-8-6-14-14-14h-45c-8 0-14 6-14 14v47c0 8 6 15 14 15h45c8 0 14-7 14-15v-47z m107 0c0-8-6-14-14-14h-45c-8 0-14 6-14 14v47c0 8 6 15 14 15h45c8 0 14-7 14-15v-47z m108 0c0-8-7-14-15-14h-45c-7 0-14 6-14 14v47c0 8 7 15 14 15h45c8 0 15-7 15-15v-47z m-644-116c0-8-7-14-15-14h-45c-7 0-14 6-14 14v47c0 8 7 15 14 15h45c8 0 15-7 15-15v-47z m107 0c0-8-6-14-14-14h-45c-8 0-14 6-14 14v47c0 8 6 15 14 15h45c8 0 14-7 14-15v-47z m107 0c0-8-6-14-14-14h-45c-8 0-14 6-14 14v47c0 8 6 15 14 15h45c8 0 14-7 14-15v-47z m108 0c0-8-7-14-15-14h-45c-7 0-14 6-14 14v47c0 8 7 15 14 15h45c8 0 15-7 15-15v-47z m107 0c0-8-6-14-14-14h-45c-8 0-14 6-14 14v47c0 8 6 15 14 15h45c8 0 14-7 14-15v-47z m107 0c0-8-6-14-14-14h-45c-8 0-14 6-14 14v47c0 8 6 15 14 15h45c8 0 14-7 14-15v-47z m108 0c0-8-7-14-15-14h-45c-7 0-14 6-14 14v47c0 8 7 15 14 15h45c8 0 15-7 15-15v-47z m-644-116c0-8-7-14-15-14h-45c-7 0-14 6-14 14v47c0 8 7 14 14 14h45c8 0 15-6 15-14v-47z m107 0c0-8-6-14-14-14h-45c-8 0-14 6-14 14v47c0 8 6 14 14 14h45c8 0 14-6 14-14v-47z m107 0c0-8-6-14-14-14h-45c-8 0-14 6-14 14v47c0 8 6 14 14 14h45c8 0 14-6 14-14v-47z m108 0c0-8-7-14-15-14h-45c-7 0-14 6-14 14v47c0 8 7 14 14 14h45c8 0 15-6 15-14v-47z m107 0c0-8-6-14-14-14h-45c-8 0-14 6-14 14v47c0 8 6 14 14 14h45c8 0 14-6 14-14v-47z m107 0c0-8-6-14-14-14h-45c-8 0-14 6-14 14v47c0 8 6 14 14 14h45c8 0 14-6 14-14v-47z m108 0c0-8-7-14-15-14h-45c-7 0-14 6-14 14v47c0 8 7 14 14 14h45c8 0 15-6 15-14v-47z m-644-116c0-8-7-14-15-14h-45c-7 0-14 6-14 14v47c0 8 7 14 14 14h45c8 0 15-6 15-14v-47z m107 0c0-8-6-14-14-14h-45c-8 0-14 6-14 14v47c0 8 6 14 14 14h45c8 0 14-6 14-14v-47z m107 0c0-8-6-14-14-14h-45c-8 0-14 6-14 14v47c0 8 6 14 14 14h45c8 0 14-6 14-14v-47z m108 0c0-8-7-14-15-14h-45c-7 0-14 6-14 14v47c0 8 7 14 14 14h45c8 0 15-6 15-14v-47z m107 0c0-8-6-14-14-14h-45c-8 0-14 6-14 14v47c0 8 6 14 14 14h45c8 0 14-6 14-14v-47z m107 0c0-8-6-14-14-14h-45c-8 0-14 6-14 14v47c0 8 6 14 14 14h45c8 0 14-6 14-14v-47z m108 0c0-8-7-14-15-14h-45c-7 0-14 6-14 14v47c0 8 7 14 14 14h45c8 0 15-6 15-14v-47z m-644-116c0-8-7-14-15-14h-45c-7 0-14 6-14 14v47c0 8 7 14 14 14h45c8 0 15-6 15-14v-47z m107 0c0-8-6-14-14-14h-45c-8 0-14 6-14 14v47c0 8 6 14 14 14h45c8 0 14-6 14-14v-47z m107 0c0-8-6-14-14-14h-45c-8 0-14 6-14 14v47c0 8 6 14 14 14h45c8 0 14-6 14-14v-47z m108 0c0-8-7-14-15-14h-45c-7 0-14 6-14 14v47c0 8 7 14 14 14h45c8 0 15-6 15-14v-47z" horiz-adv-x="1000" />
<glyph glyph-name="email" unicode="&#xe829;" d="m1000 449v-537c0-23-18-41-41-41h-918c-22 0-41 18-41 41v537c0 26 21 44 21 44l450 332c15 15 39 15 54 0l457-338c0 0 18-21 18-38z m-644-308c-8 12-23 15-32 8l-272-203c-10-7-10-22-2-34l0 0c9-11 24-15 33-8l272 204c9 7 10 22 1 33l0 0z m294 0c-8-11-8-26 1-33l273-204c9-7 24-3 32 8l0 0c9 12 8 27-1 34l-272 203c-10 7-24 4-33-8l0 0z m163 214v139c0 23-19 41-42 41h-545c-23 0-42-18-42-41v-125l-91 60c-15 10-36 8-48-4l0 0c-11-12-9-30 6-39l429-291c0 0 26-20 55 0l429 291c14 9 17 27 5 39l0 0c-11 12-32 14-47 4l-109-74z m-241-162c-27-13-51-17-84-17-76 0-143 55-143 145 0 93 68 175 172 175 80 0 138-56 138-133 0-67-37-109-87-109-22 0-37 11-39 35h-1c-15-23-35-35-60-35-29 0-51 22-51 59 0 56 41 107 107 107 21 0 44-5 55-11l-14-85c-4-27-1-40 12-40 19 0 44 25 44 78 0 59-38 106-109 106-71 0-132-56-132-143 0-77 49-120 117-120 24 0 49 5 67 14l8-26z m-41 189c-3 1-8 2-14 2-30 0-54-30-54-65 0-18 8-29 23-29 17 0 35 22 39 49l6 43z" horiz-adv-x="1000" />
<glyph glyph-name="phone" unicode="&#xe82a;" d="m154 849c0 0-101-40-128-80-27-40-48-99 16-257 64-157 334-563 711-657 0 0 128-21 163 22 34 42 80 117 80 117s16 32-14 62c-29 29-219 171-219 171s-42 10-72-14c-29-24-51-64-51-64s-50-43-109-5c-59 37-238 176-248 259-11 83 24 96 24 96l72 62c0 0 13 18-8 58-22 40-150 203-150 203s-24 22-67 27z" horiz-adv-x="1000" />
<glyph glyph-name="user_female" unicode="&#xe82b;" d="m930 30c-24 104-126 150-126 150-139 40-163 87-163 87 174 32 179 135 179 135-100 29-92 116-92 116v174c0 0-16 158-238 158-221 0-221-174-221-174s3-98 0-171c-3-74-98-108-98-108 11-98 196-135 196-135-11-37-56-45-180-79-124-34-116-185-116-185v-87c0 0 11-53 419-60 444-8 444 71 444 71l-4 108z" horiz-adv-x="1000" />
<glyph glyph-name="user_male" unicode="&#xe82c;" d="m386 306v100c0 0-88 118-93 128-5 10-17 66 12 81 0 0-12 49 0 105 12 57 76 130 209 130 132 0 200-103 200-145 0-41-22-88-12-90 10-3 33-20 34-44 3-35-24-67-66-91 0 0-36-78-44-81l-2-98c0 0 83-69 171-76 53-4 155-69 162-120 7-51 5-174 5-174s-17-81-456-81c-439 0-473 83-473 83l12 143c0 0-2 100 123 137 125 37 218 76 218 93z" horiz-adv-x="1000" />
<glyph glyph-name="physician" unicode="&#xe82d;" d="m727 684c0 0-37 166-222 166-186 0-218-165-218-165h143c6 32 33 56 75 56 33 0 56-25 62-57l160 0 0 0z m2-41h-161c-6-34-29-59-63-59-42 0-69 24-75 57h-148c0 0-25-109 99-277v-51c0-17-95-57-223-95-127-37-125-140-125-140l-4-228h939c0 0 2 206-5 258-8 53-112 118-165 123-90 7-175 77-175 77l2 49c130 120 104 286 104 286z m-48-728v90h-91v61h91v90h60v-90h91v-61h-91v-90h-60z" horiz-adv-x="1000" />
<glyph glyph-name="excel" unicode="&#xe82e;" d="m115-7v696c0 0-10 142 149 160h310c0 0 20 1 52-22 26-18 243-246 243-246s12-18 12-47c0-28 0-511 0-511s12-150-146-174h-485c0 0-117 8-135 144z m143-72c0 0 396 0 467 0 70 0 80 78 80 78s0 433 0 487c0 54-44 54-44 54s-83 0-139 0c-56 0-50 49-50 49s0 78 0 134c0 56-34 50-34 50s-170 0-262 0-91-84-91-84v-672c0-84 73-96 73-96z m128 68h-175l217 266-172 233h172l82-128 82 128h171l-176-235 201-262h-166l-118 164-118-166z" horiz-adv-x="1000" />
<glyph glyph-name="check" unicode="&#xe82f;" d="m148 534l238-252 459 465 155-174-614-618-386 433 148 146z" horiz-adv-x="1000" />
<glyph glyph-name="chevron_down" unicode="&#xe830;" d="m812 571c32 33 84 33 116 0l48-47c32-33 32-85 0-117l-419-420c-32-32-84-32-116 0l-417 422c-32 32-32 85 0 116l48 48c33 32 85 32 117-1l311-313 312 312z" horiz-adv-x="1000" />
<glyph glyph-name="exclamation_mark" unicode="&#xe831;" d="m538 206l88 509c1 7 2 16 2 26 0 73-48 109-143 109-95 0-143-36-143-110 0-8 1-17 2-25l88-509h106z m-178-231c0-83 41-125 125-125 84 0 125 42 125 125s-41 126-125 126c-84 0-125-42-125-126z" horiz-adv-x="1000" />
<glyph glyph-name="pie_chart" unicode="&#xe832;" d="m836-21c-86-85-221-129-336-129-247 0-453 180-493 416h521l308-287z m60 65c65 85 104 191 104 306 0 244-175 448-407 491l-1-519 304-278z m-396 806c-276 0-500-224-500-500h500v500z" horiz-adv-x="1000" />
<glyph glyph-name="users" unicode="&#xe833;" d="m742 42c223-8 258 36 258 36l-2 49c-17 72-76 93-76 93-97 27-89 45-89 45 130 44 133 108 133 108-69 20-64 80-64 80v120c0 0-11 110-164 110-153 0-153-121-153-121s2-67 0-118c-2-51-68-75-68-75 8-67 135-93 135-93s63-29 77-99c14-69 13-135 13-135z m-494 296v82c0 0-73 97-77 105-4 8-14 54 11 66 0 0-11 40 0 86 10 46 62 107 170 107 109 0 165-85 165-119s-18-72-10-74c8-2 27-16 28-36 2-28-20-54-54-75 0 0-30-64-36-66l-2-80c0 0 42-61 115-67 43-3 122-52 128-94 6-42 4-142 4-142s16-67-344-67c-360 0-346 69-346 69l10 116c0 0-2 82 101 113 102 30 137 62 137 76z" horiz-adv-x="1000" />
<glyph glyph-name="vitals" unicode="&#xe834;" d="m289 240l101 385 110-378 90 211 89-218h217l5 2c123 186 97 312 97 312s-30 211-248 211c-171 0-244-124-244-124s-84 117-255 117-251-167-251-261c0-50 26-140 109-259l180 2z m54-52l47 194 58-194h99l43 109 44-109 210-1c-75-92-187-195-352-303-147 115-252 217-326 304h177z" horiz-adv-x="1000" />
<glyph glyph-name="power" unicode="&#xe835;" d="m568 334c0-31-25-56-56-56h-21c-31 0-57 25-57 56v460c0 31 26 56 57 56h21c31 0 56-25 56-56v-460z m83 212c-22 19-25 53-6 75l13 16c20 22 54 25 76 6l5-4c115-77 190-208 190-357 0-239-193-432-431-432-239 0-432 193-432 432 0 146 72 275 183 353l28 20c24 14 48 18 69-5l14-15c21-23 20-59-3-80l-20-14c-87-53-145-150-145-259 0-169 137-306 306-306 168 0 305 137 305 306 0 111-60 208-148 261l-4 3z" horiz-adv-x="1000" />
<glyph glyph-name="exit" unicode="&#xe836;" d="m66 192v217h277v131l263-243-260-231v128l-280-2z m200 275h-90v160c0 0 3 59 71 59s453 0 453 0l108 165h126v-1000h-106l-112 69h-478c0 0-64 6-64 61 0 48 0 156 0 156h89v-135h412v593h-409v-128z" horiz-adv-x="1000" />
<glyph glyph-name="chevron_left" unicode="&#xe837;" d="m682 38c32-32 32-84 0-116l-47-48c-33-32-85-32-117 0l-420 419c-32 32-32 84 0 116l422 417c32 32 84 32 116 0l48-48c32-33 32-85-1-117l-313-311 312-312z" horiz-adv-x="1000" />
<glyph glyph-name="chevron_right" unicode="&#xe838;" d="m250 662c-32 32-32 84 0 116l48 48c32 32 84 32 116 0l420-419c32-32 32-84 0-116l-422-417c-32-32-84-32-116 0l-48 48c-32 33-31 85 1 117l314 311-313 312z" horiz-adv-x="1000" />
<glyph glyph-name="eye" unicode="&#xe839;" d="m0 357c0 0 163 238 476 238 313 0 524-238 524-238s-184-239-524-239c-340 0-476 239-476 239z m500 162c-90 0-162-73-162-162 0-90 72-163 162-163 90 0 163 73 163 163 0 89-73 162-163 162z m91-162c0-51-41-91-91-91-50 0-91 40-91 91 0 50 41 90 91 90 50 0 91-40 91-90z" horiz-adv-x="1000" />
<glyph glyph-name="print" unicode="&#xe83a;" d="m227 821h546v-182h-546v182z m-91-625h-136v410h1000v-410h-136v228h-728v-228z m46 179v-273l227-228h409v501h-91v-410h-272v137h-182v273h-91z" horiz-adv-x="1000" />
<glyph glyph-name="question_mark" unicode="&#xe83b;" d="m726 791c-64 37-135 57-213 59-77 2-149-13-215-47-81-40-122-95-124-166l-2-66 222-6 2 66c1 31 12 57 34 78 22 21 49 31 80 30 31-1 57-13 78-35 21-22 31-48 30-79-2-56-34-97-97-123-39-17-71-44-96-82-25-39-38-80-39-122l-3-111 222-7 4 121c1 52 28 93 81 123 98 55 148 120 150 194 2 71-36 129-114 173z m-157-753c-21 22-47 33-78 34-31 1-58-9-80-30s-33-47-34-78c-1-31 9-58 29-80 21-22 47-33 79-34 31-1 57 9 79 30 22 21 34 47 35 78 1 31-9 58-30 80z" horiz-adv-x="1000" />
<glyph glyph-name="family" unicode="&#xe83c;" d="m656 635c36 0 66 29 66 65s-30 66-66 66c-36 0-65-30-65-66s29-65 65-65z m153-299v199c0 44-25 86-76 86l-147 0c-46 0-75-37-75-85v-41l-5 18c-7 19-24 53-66 53h-101c-43 0-60-34-65-53l-52-170c-11-37 36-51 47-17l47 157h12l-80-277h75v-216c0-38 56-38 56 0l-1 217h23v-218c0-36 56-37 56 0v217h74l-81 277h14l46-156c4-13 12-19 21-20 15-3 32 6 32 29v195h16l0-530c0-21 16-37 37-37 20 0 36 16 36 37l0 307h17l0-307c0-21 16-37 36-37 21 0 37 16 37 37l0 530h16v-195c0-40 52-40 51 0z m-419 243c33 0 60 27 60 60s-27 61-60 61-60-27-60-61 26-60 60-60z m609-376l-32 106c-4 12-15 34-41 34h-64c-27 0-37-21-41-34l-32-106c-7-23 23-32 29-11l30 99h7l-50-174h47v-136c0-23 35-23 35 0l0 137h14v-137c0-23 35-23 35 0v136h46l-50 174h8l30-98c6-22 36-13 29 10z m-105 148c21 0 38 17 38 38s-17 38-38 38-38-17-38-38 17-38 38-38z m-793 80c25 0 46 20 46 45 0 25-21 46-46 46-25 0-45-21-45-46 0-25 20-45 45-45z m53-10l-102 0c-32 0-52-26-52-59v-140c0-27 36-27 36 0v136h11l0-369c0-14 12-25 26-25 14 0 25 11 25 25v214h12l0-214c0-14 11-25 25-25 14 0 26 11 26 25l0 369h11v-136c0-27 36-27 36 0v139c0 30-18 60-54 60z" horiz-adv-x="1000" />
<glyph glyph-name="chevron_up" unicode="&#xe83d;" d="m188 146c-32-32-84-32-116 0l-48 48c-32 32-32 84 0 116l419 420c32 32 84 32 116 0l417-421c32-33 32-85 0-117l-48-47c-33-32-85-32-117 0l-311 314-312-313z" horiz-adv-x="1000" />
<glyph glyph-name="cholesterol" unicode="&#xe83e;" d="m259 91c0 0-48 254 97 376 144 121 246 109 287 109s134-5 241-92c0 0-226 399-884 366v-416c0 0 178-168 259-343z m715 107c0-191-155-346-347-346-191 0-346 155-346 346 0 192 155 347 346 347 192 0 347-155 347-347z m-347 288c-159 0-288-129-288-288 0-159 129-288 288-288 159 0 288 129 288 288 0 159-129 288-288 288z m-141-163c0-11-9-20-20-20-11 0-20 9-20 20 0 11 9 20 20 20 11 0 20-9 20-20z m-23-118c0-11-9-20-20-20s-20 9-20 20c0 11 9 20 20 20s20-9 20-20z m155 156c0-11-9-20-21-20s-20 9-20 20 9 20 20 20 21-9 21-20z m-133-367c0 0 81 43 97 130 12 68 33 137 83 129 51-7 125-112 206-114 0 0-122-318-386-145z m187 178c-12 0-21-9-21-20s9-21 21-21 20 9 20 21-9 20-20 20z m-34-76c-12 0-21-9-21-20 0-12 9-21 21-21s20 9 20 21c0 11-9 20-20 20z m-29-73c-11 0-20-9-20-20 0-11 9-20 20-20 11 0 20 9 20 20 0 11-9 20-20 20z m78 31c-11 0-20-9-20-20s9-21 20-21c11 0 20 9 20 21s-9 20-20 20z m55 86c-11 0-20-10-20-21 0-11 9-20 20-20s21 9 21 20c0 11-10 21-21 21z m61-18c-11 0-20-9-20-20 0-11 9-20 20-20 11 0 21 9 21 20 0 11-10 20-21 20z" horiz-adv-x="1000" />
<glyph glyph-name="fast_foward" unicode="&#xe83f;" d="m0 73l366 286-364 285-2-571z m470 0l366 286-364 285-2-571z m452 569h78v-584h-78v584z" horiz-adv-x="1000" />
<glyph glyph-name="readmission" unicode="&#xe840;" d="m989 65c0-119-97-215-215-215s-215 96-215 215c0 119 96 215 215 215s215-96 215-215z m-201-40l24 140c1 2 1 5 1 8 0 20-13 30-39 30-27 0-40-10-40-31 0-2 0-4 1-7l24-140h29z m-49-63c0-23 12-34 35-34s34 11 34 34c0 23-11 34-34 34s-35-11-35-34z m-229 11h-469l5 191c0 0-2 89 109 122 110 32 193 67 193 82v89c0 0-78 104-83 113s-15 59 11 72c0 0-11 43 0 93s68 115 185 115c117 0 178-91 178-128 0-37-20-78-11-80 9-3 29-18 30-39 2-31-21-59-58-81 0 0-33-69-39-71l-3-87c0 0 53-37 100-44 0 0-212-101-148-347z" horiz-adv-x="1000" />
<glyph glyph-name="refresh" unicode="&#xe841;" d="m42 210l91-321c6-20 23-25 38-10l35 35c15 15 43 20 61 10 0 0 160-124 396-51 242 74 299 354 299 354 7 20-8 38-29 41l-88 10c-35 2-40-17-43-27-67-246-327-259-423-200-20 13-12 28 1 44 13 16 26 28 26 28 14 16 8 34-13 38l-325 77c-20 5-32-7-26-28m309 617c-242-74-299-354-299-354-7-19 8-38 29-41l88-10c35-2 40 17 42 27 68 246 328 259 424 200 20-13 12-27-1-44-13-16-26-28-26-28-14-16-8-33 13-38l325-77c20-5 32 7 27 28l-92 321c-6 20-23 25-38 10l-35-35c-15-15-42-19-61-10 0 0-160 124-396 51" horiz-adv-x="1000" />
<glyph glyph-name="graph" unicode="&#xe842;" d="m0 851h89v-904h911v-96h-996l-4 1000z m231-619l-92-46v-197h92v243z m158 31l-50 30-43-23v-281h93v274z m157-47l-42-30-50 30v-227h92v227z m158 162l-92-92v-297h92v389z m158 161l-93-92v-458h93v550z m-720-315v100l181 119 169-96 327 327-50 50 216 58-54-216-50 43-377-366-173 96-189-115z" horiz-adv-x="1000" />
<glyph glyph-name="clear" unicode="&#xe843;" d="m616 581c-124 35-262-5-347-112-114-143-91-351 52-465 143-114 351-91 465 53 39 48 62 104 69 162l81-12c-10-71-38-141-86-201-142-179-401-208-580-66-178 142-207 401-65 579 112 142 298 189 459 133l-48-71z m-65-167l278 219-280 217 2-436z" horiz-adv-x="1000" />
<glyph glyph-name="clinical_trial" unicode="&#xe844;" d="m349 695c0 0-44 55-44 79 0 24 4 76 179 76 175 0 200-42 200-86 0-36-46-63-50-104-5-53 27-107 27-107l277-607c0 0 56-96-32-96h-824c0 0-80-8-44 84 36 92 305 628 305 628s22 52 6 133z m27-152c0 0-80-173-127-267l482-4-128 319c0 0-13 22-7 84 4 40 39 74 39 95 0 27-23 35-156 36-138 1-139-30-131-42 23-34 26-50 26-50 23-125 2-171 2-171z m-262-641l143 315-28 4-151-331 36 12z" horiz-adv-x="1000" />
<glyph glyph-name="home" unicode="&#xe845;" d="m382-146h-229v459h-153l500 535 500-535h-160v-459h-222v292h-236v-292z" horiz-adv-x="1000" />
<glyph glyph-name="report" unicode="&#xe846;" d="m0 834h39v-966h-39v966z m0-927h965v-39h-965v39z m130 206l-23 31 289 169 23-31-289-169z m243 168l21 33 285-150-21-33-285 150z m281-151l-29 25 324 258 30-25-325-258z m-232 169c2-15-9-29-25-31-15-2-30 9-31 25-2 15 9 29 24 31 16 2 30-9 32-25z m260-148c2-15-9-29-24-31-16-2-30 9-32 25-1 15 10 29 25 31 16 2 30-9 31-25z m318 265c2-15-9-29-25-31-15-2-29 9-31 24-2 16 9 30 24 32 16 2 30-9 32-25z m-863-291c2-15-9-29-24-31-16-2-30 9-32 24-2 16 9 30 25 32 15 2 29-9 31-25z m-32 178l-25 29 259 268 24-30-258-267z m213 264l19 33 312-211-19-34-312 212z m308-213l-28 27 202 276 32-23-206-280z m-505-28c3-15-7-30-22-33-16-3-30 7-33 23-3 15 7 30 22 32 16 3 31-7 33-22z m247 261c3-15-7-30-22-33-15-3-30 7-33 23-3 15 7 30 22 32 16 3 31-7 33-22z m283-201c3-15-7-30-23-33-15-3-30 7-33 23-2 15 8 30 23 33 15 2 30-8 33-23z m195 268c2-16-8-31-23-33-15-3-30 7-33 22-3 16 7 30 23 33 15 3 30-7 33-22z" horiz-adv-x="1000" />
<glyph glyph-name="rewind" unicode="&#xe847;" d="m1000 629l-366-286 364-285 2 571z m-470 0l-366-286 364-285 2 571z m-530 15h78v-584h-78v584z" horiz-adv-x="1000" />
<glyph glyph-name="info" unicode="&#xe848;" d="m496 850c-62-7-109-62-103-125 6-63 62-110 125-104 63 6 109 62 103 125-6 63-62 110-125 104z m-109-493c8-90-59-253-63-332-4-79 69-182 186-175 117 8 153 74 146 109-7 34-99 6-99 6-70 44-6 231 11 299 17 68 16 123 16 123-36 165-208 122-249 102-41-20-25-69-25-69 25-17 68 26 77-63z" horiz-adv-x="1000" />
<glyph glyph-name="close" unicode="&#xe849;" d="m9 630l279-279-287-288 211-211 305 304 279-279 203 203-287 288 279 279-203 203-288-287-279 279-212-212z" horiz-adv-x="1000" />
</font>
</defs>
</svg>
