<?xml version="1.0" standalone="no"?>
<!DOCTYPE svg PUBLIC "-//W3C//DTD SVG 1.1//EN" "http://www.w3.org/Graphics/SVG/1.1/DTD/svg11.dtd" >
<svg xmlns="http://www.w3.org/2000/svg">
<metadata>Generated by IcoMoon</metadata>
<defs>
<font id="mediMarket" horiz-adv-x="1024">
<font-face units-per-em="1024" ascent="960" descent="-64" />
<missing-glyph horiz-adv-x="1024" />
<glyph unicode="&#x20;" horiz-adv-x="512" d="" />
<glyph unicode="&#xe900;" glyph-name="rupee" d="M821.958 723.937h-147.478c-9.835 89.084-51.234 153.266-104.709 192.486h252.188c12.014 0 21.788 9.773 21.788 21.788s-9.776 21.788-21.79 21.788h-619.916c-12.015 0-21.788-9.775-21.788-21.788 0-12.015 9.773-21.788 21.788-21.788h263.517c70.408-13.011 150.59-71.591 165.407-192.486h-428.924c-12.015 0-21.788-9.775-21.788-21.79 0-12.014 9.773-21.788 21.788-21.788h431.725c-0.871-60.572-21.601-109.69-62.252-145.921-115.231-102.406-350.485-76.26-352.787-76.073-8.716 0.871-17.617-3.486-21.788-11.454-4.233-7.906-3.113-17.617 2.74-24.466l413.671-478.911c4.295-4.98 10.395-7.533 16.496-7.533 5.042 0 10.148 1.743 14.256 5.292 9.088 7.843 10.085 21.601 2.241 30.752l-379.745 439.631c81.925-2.118 238.927 5.79 333.801 90.142 50.363 44.76 76.073 104.959 76.945 178.542h144.615c12.014 0 21.788 9.775 21.788 21.788-0.001 12.015-9.712 21.79-21.79 21.79z" />
<glyph unicode="&#xe901;" glyph-name="gym" d="M53.106 555.173c0.041-19.608 0.348-39.199 0.583-58.796h-19.55c-18.616 0.002-34.139-15.531-34.139-34.136 0-18.6 15.523-34.132 34.139-34.132h20.219c0.27-21.501 0.597-42.981 0.638-64.484 0.098-44.020 68.373-44.030 68.279 0-0.139 63.85-1.754 127.693-1.893 191.56-0.094 44.012-68.373 44.012-68.275-0.010zM804.137 627.243c1.392-43.398 2.605-86.807 4.173-130.183-199.163 4.443-397.816-22.472-596.924-11.525-1.157 44.079-2.601 88.157-4.678 132.224-2.061 43.834-70.346 44.038-68.275 0 5.477-116.257 7.465-232.58 7.59-348.966 0.043-44.020 68.322-44.032 68.281 0-0.057 49.471-0.546 98.934-1.396 148.384 199.554-10.777 398.656 16.291 598.267 11.536 2.327-48.933 5.4-97.823 10.029-146.64 4.124-43.441 72.43-43.834 68.277 0-10.881 114.787-13.394 229.99-17.070 345.172-1.39 43.908-69.676 44.047-68.273 0zM980.929 500.842c9.053 1.396 0.249 0.098-1.423-0.051-2.605-0.233-5.24-0.327-7.88-0.446-1.963-0.084-3.926-0.041-5.899-0.074-1.515 23.302-2.531 46.639-2.272 70.062 0.497 44.047-67.776 44.004-68.277 0-0.84-74.292 10.601-147.767 13.28-221.897 1.576-43.897 69.874-44.053 68.275 0-1.016 28.054-3.28 56.003-5.668 83.953 9.334 0.435 18.614 1.161 28.011 2.605 18.43 2.846 28.344 25.645 23.848 41.998-5.357 19.485-23.609 26.68-41.996 23.85z" />
<glyph unicode="&#xe902;" glyph-name="wheelchair" d="M914.112 286.912c-9.984 9.984-26.208 9.984-36.192 0l-33.344-33.344-139.712 136c-0.096 0.096-0.16 0.16-0.256 0.192-0.352 0.352-0.768 0.672-1.12 0.96-0.32 0.256-0.576 0.448-0.864 0.704s-0.672 0.512-1.024 0.704c-0.352 0.256-0.704 0.512-1.088 0.704-0.32 0.16-0.576 0.352-0.864 0.512-0.416 0.256-0.864 0.512-1.344 0.704-0.32 0.16-0.576 0.256-0.864 0.416-0.448 0.192-0.928 0.416-1.376 0.608-0.352 0.16-0.704 0.256-1.088 0.352-0.416 0.16-0.832 0.32-1.216 0.416s-0.928 0.192-1.376 0.32c-0.352 0.064-0.672 0.16-1.024 0.192-0.512 0.096-1.024 0.16-1.6 0.192-0.32 0.064-0.576 0.096-0.864 0.096-0.512 0.064-1.024 0.064-1.536 0.064-0.32 0-0.608 0-0.96 0-0.448 0-0.928-0.064-1.344-0.096s-0.832-0.064-1.184-0.096c-0.352-0.064-0.768-0.096-1.12-0.16-0.448-0.096-0.96-0.16-1.44-0.256-0.096-0.064-0.192-0.064-0.352-0.064l-201.984-48.8c-5.44-1.344-10.176-0.672-13.312 1.792s-4.864 6.912-4.864 12.48v86.432h179.2c14.144 0 25.6 11.456 25.6 25.6s-11.456 25.6-25.6 25.6h-179.2v156.16c8.288-1.696 16.832-2.56 25.6-2.56 70.56 0 128 57.44 128 128s-57.44 128-128 128-128-57.44-128-128c0-41.792 20.128-78.944 51.2-102.336v-316.864c0-21.312 8.896-40.544 24.384-52.736 11.168-8.8 25.088-13.408 39.776-13.408 5.696 0 11.424 0.672 17.216 2.112l188.256 45.472 147.712-143.776c4.96-4.8 11.424-7.264 17.856-7.264 6.56 0 13.12 2.496 18.112 7.488l51.2 51.2c9.984 9.984 9.984 26.208 0 36.192zM486.4 857.6c42.336 0 76.8-34.464 76.8-76.8s-34.464-76.8-76.8-76.8c-42.336 0-76.8 34.464-76.8 76.8s34.464 76.8 76.8 76.8zM384-64c-183.488 0-332.8 149.312-332.8 332.8 0 79.2 28.256 155.904 79.68 216.064 50.784 59.456 120.992 99.264 197.728 112.192 13.92 2.368 27.136-7.072 29.504-20.992s-7.072-27.136-20.992-29.504c-135.936-22.848-234.656-139.616-234.656-277.696 0-155.296 126.304-281.6 281.6-281.6 138.080 0 254.88 98.656 277.696 234.656 2.368 13.92 15.552 23.36 29.504 20.992s23.36-15.52 20.992-29.504c-12.864-76.704-52.672-146.944-112.192-197.728-60.096-51.36-136.864-79.68-216.064-79.68z" />
<glyph unicode="&#xe903;" glyph-name="search1" d="M683.841 842.832c-156.213 156.213-410.46 156.213-566.673 0-156.179-156.246-156.179-410.46 0-566.707 139.111-139.078 355.77-153.978 511.881-45.377 3.285-15.543 10.802-30.376 22.892-42.465l227.495-227.495c33.152-33.085 86.725-33.085 119.708 0 33.119 33.119 33.119 86.691 0 119.708l-227.495 227.563c-12.022 11.988-26.888 19.539-42.431 22.824 108.668 156.145 93.768 372.77-45.377 511.949zM612.016 347.95c-116.626-116.626-306.431-116.626-423.024 0-116.558 116.626-116.558 306.397 0 423.024 116.592 116.592 306.397 116.592 423.024 0 116.626-116.626 116.626-306.397 0-423.024z" />
<glyph unicode="&#xe904;" glyph-name="test" d="M412.704 161.056c0-54.752 44.544-99.296 99.296-99.296s99.296 44.544 99.296 99.296v105.824c0 7.68-3.072 15.072-8.48 20.512l-140.608 140.608c-8.288 8.288-20.768 10.784-31.584 6.272s-17.888-15.072-17.888-26.784v-246.432zM470.688 337.504l82.624-82.624v-93.824c0-22.784-18.528-41.312-41.312-41.312s-41.312 18.528-41.312 41.312v176.448zM867.392 931.008c0-16-12.992-28.992-28.992-28.992h-114.016v-753.6c0-117.12-95.296-212.416-212.416-212.416s-212.416 95.296-212.416 212.416v753.6h-113.984c-16 0-28.992 12.992-28.992 28.992s12.992 28.992 28.992 28.992h142.848c0.032 0 0.096 0 0.128 0s0.096 0 0.128 0h84.384c16 0 28.992-12.992 28.992-28.992s-12.992-28.992-28.992-28.992h-55.52v-753.6c0-85.152 69.28-154.432 154.432-154.432s154.432 69.28 154.432 154.432v753.6h-55.52c-16 0-28.992 12.992-28.992 28.992s12.992 28.992 28.992 28.992h84.352c0.032 0 0.096 0 0.128 0s0.096 0 0.128 0h142.848c16 0 28.992-12.992 28.992-28.992zM441.696 802.432h54.944c16 0 28.992-12.992 28.992-28.992s-12.992-28.992-28.992-28.992h-54.944c-16 0-28.992 12.992-28.992 28.992s12.992 28.992 28.992 28.992zM441.696 679.616h109.888c16 0 28.992-12.992 28.992-28.992s-12.992-28.992-28.992-28.992h-109.888c-16 0-28.992 12.992-28.992 28.992s12.992 28.992 28.992 28.992zM441.696 500.128c-16 0-28.992 12.992-28.992 28.992s12.992 28.992 28.992 28.992h54.944c16 0 28.992-12.992 28.992-28.992s-12.992-28.992-28.992-28.992h-54.944z" />
<glyph unicode="&#xe905;" glyph-name="dinner" d="M409.6 934.4c0 14.144-11.456 25.6-25.6 25.6s-25.6-11.456-25.6-25.6c0-66.88 12.896-122.72 23.296-167.616 10.144-43.712 18.080-78.272 6.656-92.736-9.536-11.968-36.704-18.944-80.96-20.8-0.096 8.288-0.192 16.704-0.192 25.088v204.8c0 14.144-11.456 25.6-25.6 25.6s-25.6-11.456-25.6-25.6v-204.8c0-8.448-0.064-16.8-0.192-25.088-44.096 1.888-71.232 8.896-80.736 20.896-11.52 14.496-3.52 49.088 6.56 92.864 10.336 44.8 23.2 100.608 23.2 167.264 0 14.144-11.456 25.6-25.6 25.6s-25.6-11.456-25.6-25.6c0-60.864-12.128-113.504-21.856-155.808-13.216-57.248-23.616-102.496 3.264-136.288 19.968-25.088 56.384-37.536 119.456-40.192-5.728-142.848-26.432-265.728-43.584-367.456-22.848-135.36-37.888-224.768 0.608-270.272 15.936-18.848 39.52-28.416 70.144-28.416s54.208 9.568 70.144 28.416c38.496 45.568 23.456 135.072 0.608 270.528-17.088 101.632-37.792 224.448-43.584 367.2 63.232 2.56 99.648 14.944 119.648 40.096 26.816 33.728 16.384 78.912 3.168 136.128-9.792 42.336-21.952 95.072-21.952 156.064zM312.64-2.496c-3.744-4.416-11.008-10.304-31.040-10.304s-27.296 5.824-31.040 10.24c-23.136 27.392-7.424 120.672 10.816 228.704 6.592 39.008 13.664 81.152 20.288 126.304 6.592-45.12 13.664-87.104 20.224-126.112 18.24-108.128 33.952-201.536 10.816-228.96zM813.152 234.912c-20.128 119.36-45.12 267.84-45.152 443.488v256c0 11.616-7.84 21.76-19.040 24.736s-23.040-1.952-28.768-12.032c-103.36-180.928-154.432-457.28-156.576-468.928-1.376-7.488 0.672-15.168 5.536-20.992s12.096-9.216 19.648-9.216h114.432c-8.96-79.040-20.928-150.272-31.584-213.312-22.848-135.36-37.888-224.768 0.608-270.272 15.936-18.848 39.52-28.416 70.144-28.416s54.208 9.568 70.144 28.416c38.496 45.568 23.456 135.072 0.608 270.528zM620.096 499.2c12.704 59.968 45.152 199.008 96.704 323.424v-144.224c0-63.296-3.232-123.040-8.352-179.2h-88.416zM773.44-2.496c-3.744-4.416-11.008-10.304-31.040-10.304s-27.296 5.824-31.040 10.24c-23.136 27.392-7.424 120.672 10.816 228.704 6.592 39.008 13.664 81.152 20.288 126.304 6.592-45.12 13.664-87.136 20.224-126.112 18.24-108.128 33.952-201.536 10.816-228.96z" />
<glyph unicode="&#xe906;" glyph-name="ambulance" d="M642.72 761.056c-9.824 9.824-9.824 25.728 0 35.552l44.128 44.096c9.824 9.824 25.728 9.824 35.552 0s9.824-25.728 0-35.552l-44.128-44.096c-4.896-4.896-11.328-7.36-17.76-7.36s-12.864 2.464-17.76 7.36zM445.568 761.056c4.896-4.896 11.328-7.36 17.76-7.36s12.864 2.464 17.76 7.36c9.824 9.824 9.824 25.728 0 35.552l-44.096 44.096c-9.824 9.824-25.728 9.824-35.552 0s-9.824-25.728 0-35.552l44.096-44.096zM564.896 797.792c13.888 0 25.12 11.264 25.12 25.12v62.4c0 13.888-11.264 25.12-25.12 25.12s-25.12-11.264-25.12-25.12v-62.4c0-13.888 11.264-25.12 25.12-25.12zM804.384 389.824c5.44-7.68 6.144-17.728 1.824-26.080s-12.928-13.6-22.336-13.6h-235.072c-13.888 0-25.12 11.264-25.12 25.12v134.144c0 13.888 11.264 25.12 25.12 25.12h139.872c8.128 0 15.776-3.936 20.48-10.592l95.2-134.144zM735.232 400.384l-59.552 83.872h-101.76v-83.872h161.28zM344.512 469.056h-43.52v43.52c0 13.888-11.264 25.12-25.12 25.12s-25.12-11.264-25.12-25.12v-43.52h-43.52c-13.888 0-25.12-11.264-25.12-25.12s11.264-25.12 25.12-25.12h43.52v-43.52c0-13.888 11.264-25.12 25.12-25.12s25.12 11.264 25.12 25.12v43.52h43.52c13.888 0 25.12 11.264 25.12 25.12s-11.264 25.12-25.12 25.12zM900.32 107.072c-4.672-26.976-16.768-51.456-34.048-71.264h132.608c13.888 0 25.12-11.264 25.12-25.12s-11.264-25.12-25.12-25.12h-972.192c-13.888 0-25.12 11.264-25.12 25.12s11.264 25.12 25.12 25.12h132.576c-17.312 19.808-29.376 44.288-34.048 71.264h-100.064c-13.888 0-25.12 11.264-25.12 25.12v486.112c0 13.888 11.264 25.12 25.12 25.12h455.808v33.216c0 46.016 37.44 83.488 83.488 83.488h0.96c46.016 0 83.488-37.44 83.488-83.488v-33.216h106.944c8.128 0 15.776-3.936 20.48-10.592l243.040-342.432c3.008-4.256 4.64-9.344 4.64-14.56v-143.68c0-13.888-11.264-25.12-25.12-25.12h-98.56zM531.2 643.456h67.392v33.216c0 18.304-14.912 33.216-33.216 33.216h-0.96c-18.304 0-33.216-14.912-33.216-33.216v-33.216zM366.112 132.224c0 53.152-43.232 96.384-96.384 96.384s-96.384-43.232-96.384-96.384c0-53.152 43.232-96.384 96.384-96.384s96.384 43.232 96.384 96.384zM645.376 35.808c-17.312 19.808-29.376 44.288-34.048 71.264h-197.12c-4.672-26.976-16.768-51.456-34.048-71.264h265.216zM852.192 132.224c0 53.152-43.232 96.384-96.384 96.384s-96.384-43.232-96.384-96.384c0-53.152 43.232-96.384 96.384-96.384s96.384 43.232 96.384 96.384zM900.32 157.344h73.408v110.56l-230.912 325.312h-692.576v-435.84h74.944c11.968 68.928 72.224 121.536 144.512 121.536s132.544-52.576 144.512-121.536h197.12c11.968 68.928 72.224 121.536 144.512 121.536s132.544-52.608 144.512-121.536zM755.808 160c-15.36 0-27.776-12.448-27.776-27.776s12.448-27.776 27.776-27.776c15.328 0 27.776 12.448 27.776 27.776s-12.448 27.776-27.776 27.776zM269.696 160c-15.36 0-27.776-12.448-27.776-27.776s12.448-27.776 27.776-27.776c15.36 0 27.776 12.448 27.776 27.776s-12.448 27.776-27.776 27.776z" />
<glyph unicode="&#xe907;" glyph-name="dc" d="M866.656-16.864h-42.88v99.648c0 13.024-10.56 23.584-23.584 23.584h-77.408v81.536c48.416 31.296 89.088 73.824 118.112 123.712 32.256 55.488 49.312 118.912 49.312 183.456 0 64.416-16.992 127.744-49.152 183.168-26.944 46.432-64 86.496-108 117.088l10.688 15.264 5.056-3.52c4.128-2.88 8.832-4.256 13.504-4.256 7.424 0 14.752 3.52 19.328 10.048 7.456 10.656 4.864 25.344-5.792 32.832l-24.224 16.96c-0.032 0.032-0.096 0.064-0.128 0.096l-108.48 75.968c-0.032 0.032-0.064 0.032-0.096 0.064l-24.256 16.992c-10.656 7.456-25.376 4.864-32.832-5.792s-4.864-25.344 5.792-32.832l5.056-3.52-46.016-65.728-5.056 3.52c-10.656 7.456-25.344 4.864-32.832-5.792s-4.864-25.344 5.792-32.832l5.056-3.52-144.48-206.336c-3.584-5.12-4.992-11.456-3.904-17.6s4.576-11.616 9.696-15.2l108.48-75.968c4-2.784 8.704-4.256 13.504-4.256 1.376 0 2.72 0.128 4.096 0.352 6.144 1.088 11.616 4.576 15.2 9.696l109.856 156.896c52.896-36.448 84.992-96.672 84.992-161.728 0-41.152-12.416-80.032-35.968-113.248h-99.872c-13.024 0-23.584-10.56-23.584-23.584v-56.032c-12.128-2.304-24.48-3.488-36.928-3.488-62.080 0-118.752 28.48-155.488 76.32h127.616c13.024 0 23.584 10.56 23.584 23.584s-10.56 23.584-23.584 23.584h-339.52c-13.024 0-23.584-10.56-23.584-23.584s10.56-23.584 23.584-23.584h22.112c23.52-67.424 67.168-127.68 124.32-171.104 63.968-48.64 140.384-74.336 220.928-74.336 12.352 0 24.672 0.64 36.928 1.856v-25.088h-312.384c-13.024 0-23.584-10.56-23.584-23.584v-99.648h-42.88c-13.024 0-23.584-10.56-23.584-23.584s10.56-23.584 23.584-23.584h66.336c0.032 0 0.064 0 0.128 0h550.944c0.032 0 0.064 0 0.128 0h66.336c13.024 0 23.584 10.56 23.584 23.584s-10.56 23.584-23.584 23.584zM635.296 886.56l69.856-48.928-24.672-35.232c0 0-0.032-0.032-0.032-0.032l-21.312-30.432-69.856 48.928 46.016 65.728zM501.12 546.272l-69.856 48.928 130.976 187.040 69.856-48.928-130.976-187.040zM663.136 695.424l7.584 10.848 5.056-3.52c4.128-2.88 8.832-4.256 13.504-4.256 7.424 0 14.752 3.52 19.328 10.048 7.456 10.656 4.864 25.344-5.792 32.832l-5.056 3.52 8.288 11.84c85.024-59.136 137.024-157.504 137.024-261.664 0-97.184-45.216-189.248-120.288-249.184v107.52c29.76 41.44 45.44 90.144 45.44 141.664 0 80.576-39.68 155.168-105.088 200.352zM524.736 176.736c-129.6 0-246.624 80.096-294.912 198.304h83.040c19.616-34.592 47.456-63.936 81.216-85.44 39.008-24.864 84.192-38.016 130.656-38.016 12.416 0 24.768 0.928 36.928 2.784v-75.52c-12.224-1.408-24.576-2.112-36.928-2.112zM608.8 158.496v176.192h66.848v-228.32h-66.848v52.128zM272.832 59.232h503.776v-76.096h-503.776v76.096z" />
<glyph unicode="&#xe908;" glyph-name="rocket" d="M691.2 499.2c-70.56 0-128 57.44-128 128s57.44 128 128 128 128-57.44 128-128-57.44-128-128-128zM691.2 704c-42.336 0-76.8-34.464-76.8-76.8s34.464-76.8 76.8-76.8 76.8 34.464 76.8 76.8-34.464 76.8-76.8 76.8zM25.6-64c-6.656 0-13.216 2.624-18.112 7.488-7.008 7.008-9.376 17.504-5.952 26.816 78.784 216.64 161.632 326.496 246.176 326.496 27.904 0 53.952-11.968 77.568-35.52 37.28-37.28 38.592-74.4 33.184-98.976-17.088-77.216-126.144-152.832-324.096-224.832-2.88-1.024-5.824-1.536-8.768-1.536zM247.744 245.664c-25.344 0-55.2-22.208-86.272-64.256-30.56-41.312-61.28-100.192-91.552-175.456 68.352 27.488 123.296 55.392 163.776 83.2 54.624 37.536 70.816 66.56 74.752 84.288s-2.4 34.656-19.392 51.648c-13.824 13.824-27.328 20.544-41.376 20.544zM998.4 960c-132.864 0-251.232-22.528-351.936-66.976-83.008-36.672-154.048-88.064-211.264-152.896-10.656-12.096-20.544-24.32-29.696-36.608-44.128-2.912-89.28-20.48-134.336-52.224-38.144-26.816-76.448-64-113.92-110.432-62.976-78.016-101.696-154.976-103.328-158.208-5.568-11.2-2.24-24.832 7.872-32.16 4.512-3.264 9.792-4.864 15.008-4.864 6.56 0 13.12 2.496 18.080 7.424 0.256 0.256 24.736 24.32 66.464 47.936 34.4 19.456 87.456 42.336 151.616 46.4 16.224-41.536 62.656-91.2 84.928-113.472s71.936-68.704 113.472-84.928c-4.032-64.16-26.944-117.184-46.4-151.616-23.648-41.792-47.68-66.208-47.872-66.4-8.864-8.864-9.984-22.88-2.656-33.088 4.96-6.848 12.736-10.656 20.8-10.656 3.904 0 7.776 0.864 11.424 2.72 3.232 1.632 80.192 40.352 158.208 103.328 46.432 37.472 83.616 75.776 110.432 113.92 31.744 45.12 49.248 90.208 52.224 134.336 12.224 9.12 24.48 19.008 36.608 29.696 64.832 57.184 116.224 128.256 152.896 211.264 44.448 100.672 66.976 219.072 66.976 351.936v25.6h-25.6zM159.072 457.824c48.8 70.816 123.392 158.624 207.456 186.208-33.216-58.208-50.432-111.68-56.64-145.568-59.328-3.648-110.496-20.896-150.848-40.64zM521.888 95.232c19.776 40.352 37.024 91.456 40.608 150.72 33.856 6.208 87.36 23.392 145.504 56.576-27.648-83.904-115.392-158.528-186.176-207.296zM770.24 409.6c-106.496-93.952-216.768-115.2-232.64-115.2-0.096 0-10.592 0.192-38.848 20.128-19.712 13.888-42.688 33.632-64.608 55.552s-41.664 44.896-55.552 64.608c-19.904 28.256-20.128 38.752-20.128 38.848 0 15.872 21.248 126.144 115.2 232.64 112.448 127.392 284.512 197.056 498.88 202.24-5.184-214.368-74.816-386.464-202.24-498.88z" />
<glyph unicode="&#xe909;" glyph-name="health-care" d="M944.832 639.36h-241.472v241.472c0 43.648-35.52 79.168-79.168 79.168h-224.448c-43.648 0-79.168-35.52-79.168-79.168v-241.472h-241.472c-43.648 0-79.168-35.52-79.168-79.168v-224.448c0-43.648 35.52-79.168 79.168-79.168h241.472v-241.472c0-43.648 35.52-79.168 79.168-79.168h224.448c43.648 0 79.168 35.52 79.168 79.168v241.472h241.472c43.648 0 79.168 35.52 79.168 79.168v224.448c0 43.648-35.52 79.168-79.168 79.168zM993.952 335.776c0-27.072-22.016-49.088-49.088-49.088h-256.512c-8.288 0-15.040-6.72-15.040-15.040v-256.512c0-27.072-22.016-49.088-49.088-49.088h-224.448c-27.072 0-49.088 22.016-49.088 49.088v256.512c0 8.288-6.72 15.040-15.040 15.040h-256.512c-27.072 0-49.088 22.016-49.088 49.088v224.448c0 27.072 22.016 49.088 49.088 49.088h256.512c8.288 0 15.040 6.72 15.040 15.040v256.512c0 27.072 22.016 49.088 49.088 49.088h224.448c27.072 0 49.088-22.016 49.088-49.088v-256.512c0-8.288 6.72-15.040 15.040-15.040h256.512c27.072 0 49.088-22.016 49.088-49.088v-224.448zM592.16 865.824h17.024v-241.472c0-43.648 35.52-79.168 79.168-79.168h64.128c8.288 0 15.040 6.72 15.040 15.040s-6.72 15.040-15.040 15.040h-64.128c-27.072 0-49.088 22.016-49.088 49.088v256.512c0 8.288-6.72 15.040-15.040 15.040h-32.064c-8.288 0-15.040-6.72-15.040-15.040s6.72-15.040 15.040-15.040zM816.608 545.184h32.064c8.288 0 15.040 6.72 15.040 15.040s-6.72 15.040-15.040 15.040h-32.064c-8.288 0-15.040-6.72-15.040-15.040s6.72-15.040 15.040-15.040zM287.552 545.184h48.096c43.648 0 79.168 35.52 79.168 79.168v241.472h113.216c8.288 0 15.040 6.72 15.040 15.040s-6.72 15.040-15.040 15.040h-128.256c-8.288 0-15.040-6.72-15.040-15.040v-256.512c0-27.072-22.016-49.088-49.088-49.088h-48.096c-8.288 0-15.040-6.72-15.040-15.040s6.72-15.040 15.040-15.040zM944.832 575.264h-32.064c-8.288 0-15.040-6.72-15.040-15.040s6.72-15.040 15.040-15.040h17.024v-194.368h-241.472c-43.648 0-79.168-35.52-79.168-79.168v-241.472h-194.368v241.472c0 43.648-35.52 79.168-79.168 79.168h-241.472v194.368h129.248c8.288 0 15.040 6.72 15.040 15.040s-6.72 15.040-15.040 15.040h-144.288c-8.288 0-15.040-6.72-15.040-15.040v-224.448c0-8.288 6.72-15.040 15.040-15.040h256.512c27.072 0 49.088-22.016 49.088-49.088v-256.512c0-8.288 6.72-15.040 15.040-15.040h224.448c8.288 0 15.040 6.72 15.040 15.040v256.512c0 27.072 22.016 49.088 49.088 49.088h256.512c8.288 0 15.040 6.72 15.040 15.040v224.448c0 8.288-6.72 15.040-15.040 15.040z" />
<glyph unicode="&#xe90a;" glyph-name="clinic" d="M627.712 532.608h-99.296v99.296c0 13.888-11.264 25.184-25.184 25.184h-118.848c-13.888 0-25.184-11.264-25.184-25.184v-99.296h-99.296c-13.888 0-25.184-11.264-25.184-25.184v-118.848c0-13.888 11.264-25.184 25.184-25.184h99.296v-99.296c0-13.888 11.264-25.184 25.184-25.184h118.848c13.888 0 25.184 11.264 25.184 25.184v99.296h99.296c13.888 0 25.184 11.264 25.184 25.184v118.848c0 13.888-11.264 25.184-25.184 25.184zM602.56 413.728h-99.296c-13.888 0-25.184-11.264-25.184-25.184v-99.296h-68.512v99.296c0 13.888-11.264 25.184-25.184 25.184h-99.296v68.512h99.296c13.888 0 25.184 11.264 25.184 25.184v99.296h68.512v-99.296c0-13.888 11.264-25.184 25.184-25.184h99.296v-68.512zM970.496 606.368c0 0.16 0 0.32 0 0.48s0 0.32 0 0.48v327.488c0 13.888-11.264 25.184-25.184 25.184s-25.184-11.264-25.184-25.184v-302.816h-86.016v112.416c0 51.744-42.112 93.856-93.856 93.856h-592.896c-51.744 0-93.856-42.112-93.856-93.856v-592.896c0-51.744 42.112-93.856 93.856-93.856h592.896c51.744 0 93.856 42.112 93.856 93.856v112.416h86.016v-302.816c0-13.888 11.264-25.184 25.184-25.184s25.184 11.264 25.184 25.184v327.488c0 0.16 0 0.32 0 0.48s0 0.32 0 0.48v316.736zM783.776 151.552c0-24-19.52-43.52-43.52-43.52h-592.896c-24 0-43.52 19.52-43.52 43.52v592.896c0 24 19.52 43.52 43.52 43.52h592.896c24 0 43.52-19.52 43.52-43.52v-592.896zM920.128 314.304h-86.016v267.36h86.016v-267.36z" />
<glyph unicode="&#xe90b;" glyph-name="nursinghome" d="M421.568 780.608c0 13.376 10.848 24.224 24.224 24.224h41.952v41.952c0 13.376 10.848 24.224 24.224 24.224s24.224-10.848 24.224-24.224v-41.952h41.952c13.376 0 24.224-10.848 24.224-24.224s-10.848-24.224-24.224-24.224h-41.952v-41.952c0-13.376-10.848-24.224-24.224-24.224s-24.224 10.848-24.224 24.224v41.952h-41.952c-13.376 0-24.224 10.848-24.224 24.224zM1005.024-39.776c0-13.376-10.848-24.224-24.224-24.224h-937.536c-13.376 0-24.224 10.848-24.224 24.224s10.848 24.224 24.224 24.224h92.96v796.16c0 13.376 10.848 24.224 24.224 24.224h173.824c11.872 87.488 87.072 155.136 177.76 155.136s165.888-67.648 177.76-155.136h173.824c6.432 0 12.608-2.56 17.152-7.104s7.104-10.72 7.104-17.152v-796.16h92.928c13.376 0 24.224-10.848 24.224-24.224zM381.088 780.608c0-72.192 58.72-130.912 130.912-130.912s130.912 58.72 130.912 130.912-58.72 130.912-130.912 130.912c-72.192 0-130.912-58.72-130.912-130.912zM487.776 159.040h-125.024v-174.56h124.992v174.56zM661.28 159.040h-125.024v-174.56h125.024v174.56zM839.36 756.384h-149.6c-11.872-87.488-87.072-155.136-177.76-155.136s-165.888 67.648-177.76 155.136h-149.6v-771.904h129.632v198.816c0 13.376 10.848 24.224 24.224 24.224h346.976c13.376 0 24.224-10.848 24.224-24.224v-198.816h129.632v771.904zM678.592 542.72h82.592c13.376 0 24.224-10.848 24.224-24.224v-216.064c0-13.376-10.848-24.224-24.224-24.224h-82.592c-13.376 0-24.224 10.848-24.224 24.224v216.064c0 13.376 10.848 24.224 24.224 24.224zM702.816 326.656h34.112v167.584h-34.112v-167.584zM577.536 518.496v-216.064c0-13.376-10.848-24.224-24.224-24.224h-82.592c-13.376 0-24.224 10.848-24.224 24.224v216.064c0 13.376 10.848 24.224 24.224 24.224h82.592c13.376 0 24.224-10.848 24.224-24.224zM529.056 494.24h-34.112v-167.584h34.112v167.584zM369.664 518.496v-216.064c0-13.376-10.848-24.224-24.224-24.224h-82.592c-13.376 0-24.224 10.848-24.224 24.224v216.064c0 13.376 10.848 24.224 24.224 24.224h82.592c13.376 0 24.224-10.848 24.224-24.224zM321.216 494.24h-34.112v-167.584h34.112v167.584z" />
<glyph unicode="&#xe90c;" glyph-name="hospital" d="M1008.96 30.176h-17.024v194.368h0.992c8.288 0 15.040 6.72 15.040 15.040s-6.72 15.040-15.040 15.040h-0.992v514.016c0 17.12-13.92 31.072-31.072 31.072h-337.664v81.152c0 8.288-6.72 15.040-15.040 15.040h-64.128c-8.288 0-15.040-6.72-15.040-15.040v-49.088h-50.112v49.088c0 8.288-6.72 15.040-15.040 15.040h-64.128c-8.288 0-15.040-6.72-15.040-15.040v-81.152h-321.632c-17.12 0-31.072-13.92-31.072-31.072v-514.016h-0.992c-8.288 0-15.040-6.72-15.040-15.040s6.72-15.040 15.040-15.040h0.992v-194.368h-17.024c-8.288 0-15.040-6.72-15.040-15.040s6.72-15.040 15.040-15.040h993.952c8.288 0 15.040 6.72 15.040 15.040s-6.72 15.040-15.040 15.040zM961.888 30.176h-258.496v34.080h145.28c17.12 0 31.072 13.92 31.072 31.072v64.128c0 17.12-13.92 31.072-31.072 31.072h-145.28v34.080h258.496v-194.368zM703.36 160.448h145.28c0.544 0 0.992-0.448 0.992-0.992v-64.128c0-0.544-0.448-0.992-0.992-0.992h-145.28v66.144zM673.312 238.592h-322.624v34.080h322.624v-34.080zM320.64 94.304h-145.28c-0.544 0-0.992 0.448-0.992 0.992v64.128c0 0.544 0.448 0.992 0.992 0.992h145.28v-66.144zM350.688 208.544h146.272v-178.336h-146.272v178.336zM527.040 208.544h146.272v-178.336h-146.272v178.336zM414.816 865.824h34.080v-49.088c0-8.288 6.72-15.040 15.040-15.040h80.16c8.288 0 15.040 6.72 15.040 15.040v49.088h34.080v-162.304h-34.080v49.088c0 8.288-6.72 15.040-15.040 15.040h-80.16c-8.288 0-15.040-6.72-15.040-15.040v-49.088h-34.080v162.304zM62.112 768.64c0 0.544 0.448 0.992 0.992 0.992h321.632v-81.152c0-8.288 6.72-15.040 15.040-15.040h64.128c8.288 0 15.040 6.72 15.040 15.040v49.088h50.112v-49.088c0-8.288 6.72-15.040 15.040-15.040h64.128c8.288 0 15.040 6.72 15.040 15.040v81.152h337.664c0.544 0 0.992-0.448 0.992-0.992v-514.016h-258.496v33.056c0 8.288-6.72 15.040-15.040 15.040h-352.704c-8.288 0-15.040-6.72-15.040-15.040v-33.056h-258.496v514.016zM62.112 224.576h258.496v-34.080h-145.28c-17.12 0-31.072-13.92-31.072-31.072v-64.128c0-17.12 13.92-31.072 31.072-31.072h145.28v-34.080h-258.496v194.368zM862.688 320.736c9.408 0 17.024 7.648 17.024 17.024v92.192c0 9.408-7.648 17.024-17.024 17.024h-701.376c-9.376 0-17.024-7.648-17.024-17.024v-92.192c0-9.408 7.648-17.024 17.024-17.024h701.376zM496.96 350.816h-146.272v66.144h146.272v-66.144zM527.040 416.928h146.272v-66.144h-146.272v66.144zM849.664 350.816h-146.272v66.144h146.272v-66.144zM174.336 416.928h146.272v-66.144h-146.272v66.144zM161.312 513.12h701.376c9.408 0 17.024 7.648 17.024 17.024v92.192c0 9.376-7.648 17.024-17.024 17.024h-701.376c-9.376 0-17.024-7.648-17.024-17.024v-92.192c0-9.376 7.648-17.024 17.024-17.024zM496.96 543.2h-146.272v66.144h146.272v-66.144zM527.040 609.312h146.272v-66.144h-146.272v66.144zM849.664 543.2h-146.272v66.144h146.272v-66.144zM174.336 609.312h146.272v-66.144h-146.272v66.144z" />
<glyph unicode="&#xe90d;" glyph-name="books" d="M1009.376 57.984h-169.216l59.904 18.72c9.92 3.104 18.048 9.856 22.88 19.072s5.76 19.744 2.688 29.664l-223.264 714.496c-5.088 16.352-20 27.328-37.088 27.328-3.936 0-7.84-0.608-11.616-1.792l-137.248-42.88c-1.312-0.416-2.592-0.896-3.84-1.44v5.664c0 21.44-17.44 38.912-38.88 38.912h-144.704c-9.184 0-17.6-3.2-24.256-8.544-6.656 5.344-15.104 8.544-24.32 8.544h-144.864c-21.472 0-38.912-17.44-38.912-38.912v-768.864h-81.984c-8.064 0-14.624-6.56-14.624-14.624s6.56-14.624 14.624-14.624h994.752c8.064 0 14.624 6.56 14.624 14.624s-6.56 14.624-14.624 14.624zM897.024 109.376c-1.184-2.272-3.2-3.968-5.696-4.736l-137.248-42.912c-0.928-0.288-1.888-0.448-2.848-0.448-4.192 0-7.968 2.784-9.248 6.784l-164.576 526.752 155.68 48.608 164.608-526.752c0.768-2.464 0.544-5.088-0.672-7.36zM724.384 671.392l-155.68-48.608-17.792 56.96 155.68 48.64 17.792-56.96zM525.12 794.688l137.28 42.88c0.96 0.288 1.92 0.448 2.88 0.448 4.224 0 7.904-2.72 9.184-6.784l23.424-74.944-155.68-48.64-23.392 74.88c-1.6 5.12 1.248 10.56 6.336 12.128zM714.592 57.984h-202.016v646.368l202.016-646.368zM319.36 526.144h163.936v-40.736h-163.936v40.736zM483.296 555.392h-163.936v143.168h163.936v-143.168zM290.112 659.744h-164.224v38.848h164.224v-38.848zM125.856 630.464h164.224v-38.88h-164.224v38.88zM319.36 456.16h163.936v-398.176h-163.936v398.176zM328.992 836.48h144.704c5.312 0 9.632-4.32 9.632-9.632v-99.008h-163.936v99.008c0 5.312 4.32 9.632 9.632 9.632zM135.52 836.48h144.864c5.344 0 9.696-4.32 9.696-9.632v-99.008h-164.224v99.008c0 5.312 4.352 9.632 9.664 9.632zM125.856 562.336h164.224v-504.384h-164.224v504.384z" />
<glyph unicode="&#xe90e;" glyph-name="health-graph" d="M248.384 498.464c33.184-149.856 313.952-327.712 325.92-335.328 4.288-2.656 9.088-3.936 13.952-3.936 4.832 0 9.792 1.28 13.984 3.936 11.968 7.616 292.704 185.312 325.216 332.768 7.136 20.864 10.592 42.72 10.592 64.608 0 76.128-41.536 146.304-108.288 183.008-76.512 42.496-177.632 29.824-241.472-28.48-63.84 58.208-164.544 70.976-241.472 28.48-66.688-36.704-108.16-106.784-108.16-182.88-0.096-22.176 3.392-44 9.728-62.176zM372.064 697.76c23.072 12.672 49.184 19.456 75.424 19.456 46.752 0 90.688-20.704 120.576-56.768 9.952-11.968 30.4-11.968 40.384 0 46.752 56.448 132.128 72.768 195.936 37.312 50.080-27.648 81.216-80.224 81.216-137.152 0-16.32-2.592-32.48-8.576-50.72-22.336-100.832-204.416-238.016-288.768-293.216-84.32 55.232-266.4 192.48-289.44 295.872-5.216 15.36-7.744 31.616-7.744 48.128-0.032 56.928 30.976 109.472 80.992 137.056zM660.864 660.256c0 14.432 11.776 26.24 26.208 26.24 25.952 0 51.744-6.656 74.432-19.232 49.312-27.168 80.096-79.008 80.096-135.328 0-16.224-2.656-32.288-7.68-47.872-3.712-10.976-13.984-17.92-24.992-17.92-2.752 0-5.408 0.416-8.288 1.344-13.728 4.512-21.088 19.36-16.608 33.088 3.392 10.24 5.216 20.768 5.216 31.392 0 37.184-20.352 71.392-52.928 89.28-15.072 8.416-32 12.8-49.184 12.8-14.56-0.032-26.24 11.68-26.24 26.208zM1016.224 56l-109.312-109.312c-5.12-5.152-11.904-7.616-18.56-7.616-6.72 0-13.44 2.56-18.624 7.616-10.208 10.24-10.208 26.88 0 37.088l64.64 64.512h-798.848c-14.496 0-26.208 11.84-26.208 26.208v793.28l-64.608-64.576c-10.144-10.208-26.848-10.208-37.088 0-10.144 10.176-10.144 26.88 0 37.088l109.344 109.312c9.856 9.856 27.328 9.856 37.056 0l109.44-109.312c10.144-10.208 10.144-26.912 0-37.088-5.216-5.216-11.904-7.648-18.56-7.648s-13.44 2.56-18.56 7.648l-64.512 64.48v-766.912h772.576l-64.512 64.544c-10.272 10.24-10.272 26.944 0 37.088 10.24 10.272 26.848 10.272 37.056 0l109.312-109.408c10.368-10.112 10.368-26.72 0-36.992z" />
<glyph unicode="&#xe90f;" glyph-name="cog" d="M390.72-48.736c-2.112 0-4.256 0.256-6.4 0.832-45.984 11.84-90.176 30.048-131.264 54.208-11.936 7.008-16.128 22.208-9.536 34.368 8.128 14.944 12.448 31.84 12.448 48.992 0 56.48-45.92 102.4-102.4 102.4-17.088 0-34.048-4.288-48.992-12.448-12.128-6.592-27.328-2.4-34.368 9.536-24.16 41.152-42.4 85.312-54.208 131.264-3.328 12.992 3.936 26.368 16.64 30.624 41.664 14.016 69.728 53.056 69.728 97.024s-28 83.008-69.728 97.024c-12.704 4.288-19.968 17.6-16.64 30.624 11.84 45.984 30.048 90.176 54.208 131.264 7.008 11.936 22.208 16.128 34.368 9.536 14.912-8.128 31.84-12.448 48.992-12.448 56.48 0 102.4 45.92 102.4 102.4 0 17.088-4.288 34.048-12.448 48.992-6.592 12.128-2.4 27.328 9.536 34.368 41.152 24.16 85.312 42.4 131.264 54.208 12.992 3.328 26.368-3.936 30.624-16.64 14.016-41.664 53.056-69.728 97.024-69.728s83.008 28 97.024 69.728c4.288 12.704 17.664 19.968 30.624 16.64 45.984-11.84 90.176-30.048 131.264-54.208 11.936-7.008 16.128-22.208 9.536-34.368-8.128-14.944-12.448-31.84-12.448-48.992 0-56.48 45.92-102.4 102.4-102.4 17.088 0 34.048 4.288 48.992 12.448 12.128 6.592 27.328 2.4 34.368-9.536 24.16-41.152 42.4-85.312 54.208-131.264 3.328-12.992-3.936-26.368-16.64-30.624-41.664-14.016-69.728-53.056-69.728-97.024s28-83.008 69.728-97.024c12.704-4.288 19.968-17.6 16.64-30.624-11.84-45.984-30.048-90.176-54.208-131.264-7.008-11.936-22.208-16.128-34.368-9.536-14.944 8.128-31.84 12.448-48.992 12.448-56.48 0-102.4-45.92-102.4-102.4 0-17.088 4.288-34.048 12.448-48.992 6.592-12.128 2.4-27.328-9.536-34.368-41.152-24.16-85.312-42.4-131.264-54.208-12.992-3.328-26.368 3.936-30.624 16.64-14.016 41.664-53.056 69.728-97.024 69.728s-83.008-28-97.024-69.728c-3.584-10.592-13.504-17.472-24.256-17.472zM512 89.6c57.696 0 109.664-32.16 135.936-82.016 26.624 8.256 52.544 18.88 77.312 31.84-5.536 16.064-8.384 33.088-8.384 50.176 0 84.672 68.928 153.6 153.6 153.6 17.088 0 34.112-2.88 50.176-8.384 12.96 24.768 23.648 50.624 31.84 77.312-49.856 26.208-82.016 78.176-82.016 135.936s32.16 109.664 82.016 135.936c-8.256 26.624-18.88 52.544-31.84 77.312-16.064-5.536-33.088-8.384-50.176-8.384-84.672 0-153.6 68.928-153.6 153.6 0 17.088 2.88 34.112 8.384 50.176-24.768 12.96-50.624 23.648-77.312 31.84-26.208-49.856-78.176-82.016-135.936-82.016s-109.664 32.16-135.936 82.016c-26.624-8.192-52.544-18.88-77.312-31.84 5.536-16.064 8.384-33.088 8.384-50.176 0-84.672-68.928-153.6-153.6-153.6-17.088 0-34.112 2.88-50.176 8.384-12.96-24.768-23.648-50.624-31.84-77.312 49.856-26.208 82.016-78.176 82.016-135.936s-32.16-109.664-82.016-135.936c8.192-26.624 18.88-52.544 31.84-77.312 16.064 5.536 33.088 8.384 50.176 8.384 84.672 0 153.6-68.928 153.6-153.6 0-17.088-2.88-34.112-8.384-50.176 24.768-12.96 50.624-23.648 77.312-31.84 26.208 49.856 78.176 82.016 135.936 82.016zM512 294.4c-84.672 0-153.6 68.928-153.6 153.6s68.928 153.6 153.6 153.6 153.6-68.928 153.6-153.6-68.928-153.6-153.6-153.6zM512 550.4c-56.48 0-102.4-45.92-102.4-102.4s45.92-102.4 102.4-102.4c56.48 0 102.4 45.92 102.4 102.4s-45.92 102.4-102.4 102.4z" />
<glyph unicode="&#xe910;" glyph-name="spa" d="M533.472 545.216c13.088 0 23.68-10.592 23.68-23.68s-10.592-23.68-23.68-23.68h-36.864c-13.088 0-23.68 10.592-23.68 23.68s10.592 23.68 23.68 23.68h36.864zM409.312 498.4c12.768-2.752 25.376 5.376 28.128 18.144l7.2 33.344c5.312 24.64 28.288 104.96 100.512 104.96h32.32c72.224 0 95.2-80.352 100.512-104.96l7.2-33.344c2.4-11.104 12.224-18.688 23.104-18.688 1.664 0 3.328 0.16 5.024 0.544 12.768 2.752 20.896 15.36 18.144 28.128l-7.2 33.344c-18.944 87.808-75.2 142.336-146.784 142.336h-32.32c-71.584 0-127.84-54.528-146.784-142.336l-7.2-33.344c-2.752-12.768 5.376-25.376 18.144-28.128zM473.824 846.848c0 50.464 32.288 94.624 80.32 109.92 4.672 1.504 9.696 1.504 14.368 0 48.032-15.296 80.32-59.488 80.32-109.92s-32.288-94.624-80.32-109.92c-2.336-0.736-4.768-1.12-7.2-1.12s-4.864 0.384-7.2 1.12c-48.032 15.296-80.32 59.488-80.32 109.92zM521.184 846.848c0-27.168 15.84-51.232 40.16-62.080 24.288 10.848 40.16 34.912 40.16 62.080s-15.84 51.232-40.16 62.080c-24.288-10.848-40.16-34.912-40.16-62.080zM1007.36 349.152c-12.48-3.872-25.76 3.104-29.632 15.584-7.552 24.32-30.528 41.28-55.872 41.28h-603.488c7.904-13.28 15.328-26.368 22.272-39.328h544.128c43.264 0 78.464-35.2 78.464-78.464s-35.2-78.464-78.464-78.464h-3.2v-224.288h29.632c13.088 0 23.68-10.592 23.68-23.68s-10.592-23.68-23.68-23.68h-67.488c-13.088 0-23.68 10.592-23.68 23.68 0 9.696 5.824 18.016 14.176 21.696v226.272h-431.072c4.96-21.024 8.064-41.088 9.216-60.064 0.8-13.056-9.12-24.288-22.176-25.088s-24.288 9.12-25.088 22.176c-3.136 51.072-24.672 139.392-109.216 270.048-4.704 7.296-5.056 16.544-0.928 24.16s12.128 12.352 20.8 12.352h646.080c45.856 0 87.424-30.656 101.088-74.56 3.904-12.48-3.072-25.76-15.584-29.632zM364.256 319.328c9.824-21.376 18.208-42.144 25.088-62.24h495.424c17.152 0 31.104 13.952 31.104 31.136s-13.952 31.136-31.104 31.136h-520.512zM308.704 233.408c0-13.088-10.592-23.68-23.68-23.68h-156v-226.272c8.352-3.68 14.176-12 14.176-21.696 0-13.088-10.592-23.68-23.68-23.68h-67.488c-13.088 0-23.68 10.592-23.68 23.68s10.592 23.68 23.68 23.68h29.632v224.288h-3.2c-43.264 0-78.464 35.2-78.464 78.464 0 32.576 19.936 60.576 48.256 72.416-21.856 14.144-38.784 35.648-47.136 61.856-1.504 4.672-1.504 9.696 0 14.368 15.328 48.032 59.488 80.32 109.92 80.32s94.624-32.288 109.952-80.32c1.504-4.672 1.504-9.696 0-14.368-7.232-22.688-20.896-41.888-38.656-55.808h52.352c13.088 0 23.68-10.592 23.68-23.68s-10.592-23.68-23.68-23.68h-156.192c-16.864 0-31.136-14.24-31.136-31.136 0-17.152 13.952-31.136 31.136-31.136h206.56c13.088 0 23.68-10.592 23.68-23.68zM48.992 429.696c10.848-24.288 34.912-40.16 62.048-40.16s51.232 15.84 62.080 40.16c-10.848 24.288-34.912 40.16-62.080 40.16s-51.2-15.84-62.048-40.16zM281.696 910.368c29.664-16.448 23.616-41.536-9.664-108.544-14.176-28.576-28.832-58.080-32.768-86.144-5.184-36.96 9.472-66.144 42.432-84.416 3.648-2.016 7.584-2.976 11.456-2.976 8.32 0 16.416 4.416 20.736 12.192 6.336 11.424 2.208 25.856-9.216 32.192-29.408 16.288-23.36 41.28 9.792 108.064 14.208 28.64 28.896 58.24 32.832 86.368 5.152 37.056-9.568 66.336-42.624 84.64-11.424 6.336-25.856 2.208-32.192-9.216s-2.208-25.856 9.216-32.192zM173.76 631.264c3.648-2.016 7.584-2.976 11.456-2.976 8.32 0 16.416 4.416 20.736 12.192 6.336 11.424 2.208 25.856-9.216 32.192-29.408 16.288-23.36 41.28 9.792 108.064 14.208 28.64 28.896 58.24 32.832 86.368 5.152 37.056-9.568 66.336-42.624 84.64-11.424 6.336-25.856 2.208-32.192-9.216s-2.208-25.856 9.216-32.192c29.664-16.448 23.616-41.536-9.664-108.544-14.176-28.576-28.832-58.080-32.768-86.144-5.184-36.96 9.472-66.144 42.432-84.416z" />
<glyph unicode="&#xe911;" glyph-name="handicap" d="M497.853 483.077c-122.978 0-223.025-100.047-223.025-223.025s100.047-223.025 223.025-223.025 223.025 100.047 223.025 223.025-100.047 223.025-223.025 223.025zM497.853 72.037c-103.67 0-188.015 84.345-188.015 188.015s84.345 188.015 188.015 188.015c103.676 0 188.015-84.345 188.015-188.015s-84.339-188.015-188.015-188.015zM572.092 260.052c0-40.998-33.235-74.233-74.233-74.233s-74.233 33.235-74.233 74.233c0 40.998 33.235 74.233 74.233 74.233s74.233-33.235 74.233-74.233zM934.059 96.445v3.944c0 66.093-49.691 120.755-113.666 128.697 0.974 10.2 1.517 20.522 1.517 30.972 0 75.324-25.907 144.667-69.174 199.761v178.3h20.802c16.11 0 29.175 13.065 29.175 29.175s-13.065 29.175-29.175 29.175h-467.225v234.357c0 16.11-13.065 29.175-29.175 29.175s-29.175-13.065-29.175-29.175v-59.108h-51.225v4.009c0 10.474-8.49 18.964-18.964 18.964h-111.524c-10.474 0-18.964-8.49-18.964-18.964v-43.027c0-10.474 8.49-18.964 18.964-18.964h111.524c10.474 0 18.964 8.49 18.964 18.964v4.009h51.225v-365.889c0-1.435 0.222-2.812 0.42-4.195-46.552-56.121-74.583-128.131-74.583-206.576 0-178.685 145.373-324.052 324.052-324.052 156.203 0 286.941 111.098 317.365 258.426 47.112-5.421 83.831-45.501 83.831-94.037v-3.944c-24.682-7.498-42.654-30.418-42.654-57.556 0-33.224 26.934-60.159 60.159-60.159s60.159 26.934 60.159 60.159c0 27.139-17.972 50.064-42.654 57.562zM717.721 638.119v-140.297c-57.813 53.501-135.068 86.282-219.868 86.282-71.613 0-137.846-23.392-191.545-62.884v116.898h411.414zM497.853-5.65c-146.511 0-265.702 119.191-265.702 265.702s119.191 265.702 265.702 265.702 265.702-119.191 265.702-265.702-119.191-265.702-265.702-265.702z" />
<glyph unicode="&#xe912;" glyph-name="doctor" d="M819.84 825.12c0-15.264-12.384-27.616-27.616-27.616s-27.616 12.352-27.616 27.616c0 15.264 12.384 27.616 27.616 27.616s27.616-12.384 27.616-27.616zM927.072 825.12c0-65.824-47.424-120.8-109.888-132.576v-489.952c0-147.008-119.616-266.624-266.624-266.624s-266.624 119.616-266.624 266.624v127.040c-79.2 12.096-140.096 80.64-140.096 163.168v284.544c-27.392 10.176-46.944 36.576-46.944 67.456v43.2c0 39.648 32.256 71.936 71.936 71.936s71.936-32.256 71.936-71.936v-43.2c0-30.88-19.552-57.28-46.944-67.456v-284.544c0-63.456 51.648-115.104 115.104-115.104s115.104 51.616 115.104 115.104v284.544c-27.392 10.176-46.944 36.576-46.944 67.456v43.2c0 39.648 32.256 71.936 71.936 71.936s71.936-32.256 71.936-71.936v-43.2c0-30.88-19.552-57.28-46.944-67.456v-284.544c0-82.528-60.864-151.104-140.096-163.168v-127.040c0-119.456 97.184-216.64 216.64-216.64s216.64 97.184 216.64 216.64v489.952c-62.464 11.744-109.888 66.72-109.888 132.576 0 74.368 60.512 134.88 134.88 134.88s134.88-60.512 134.88-134.88zM427.040 844.864c0-12.096 9.856-21.952 21.952-21.952s21.952 9.856 21.952 21.952v43.2c0 12.096-9.856 21.952-21.952 21.952s-21.952-9.856-21.952-21.952v-43.2zM190.816 888.064c0 12.096-9.856 21.952-21.952 21.952s-21.952-9.856-21.952-21.952v-43.2c0-12.096 9.856-21.952 21.952-21.952s21.952 9.856 21.952 21.952v43.2zM877.12 825.12c0 46.816-38.080 84.896-84.896 84.896s-84.896-38.080-84.896-84.896c0-46.688 37.888-84.704 84.544-84.896 0.128 0 0.256 0 0.384 0s0.256 0 0.384 0c46.656 0.192 84.544 38.208 84.544 84.896z" />
<glyph unicode="&#xe913;" glyph-name="heart-care" d="M573.312 69.344c-21.696-19.712-45.792-40.768-61.28-45.504-18.304 5.472-48.16 33.216-91.808 73.76-7.424 6.88-15.296 14.208-23.68 21.92-162.24 149.632-336.32 368.608-338.304 534.368-0.672 56.704 18.304 102.976 58.016 141.376 51.648 49.984 119.040 77.472 189.76 77.472 69.472 0 135.552-26.272 186.048-73.952 11.232-10.592 28.768-10.592 39.968 0 50.528 47.68 116.608 73.952 186.080 73.952 70.72 0 138.112-27.52 189.76-77.472 81.76-79.104 77.216-198.656-13.504-355.296-8.064-13.92-3.296-31.744 10.624-39.808s31.744-3.328 39.808 10.592c131.84 227.68 74.72 357.504 3.584 426.336-62.592 60.544-144.352 93.856-230.272 93.856-75.52 0-147.744-25.536-206.048-72.416-58.304 46.88-130.528 72.416-206.048 72.416-85.92 0-167.68-33.344-230.272-93.856-51.136-49.472-76.608-111.36-75.744-183.936 2.784-231.936 273.984-499.904 357.056-576.512 8.32-7.68 16.16-14.944 23.52-21.792 60.864-56.512 91.424-84.896 127.68-89.664 1.248-0.16 2.528-0.256 3.808-0.256s2.528 0.096 3.808 0.256c29.152 3.84 55.392 23.552 96.608 60.96 11.904 10.816 12.8 29.216 1.984 41.12s-29.216 12.768-41.12 1.984zM924.704 352.576h-93.536v93.504c0 16.064-13.024 29.12-29.12 29.12h-117.12c-16.096 0-29.12-13.056-29.12-29.12v-93.504h-93.536c-16.096 0-29.12-13.024-29.12-29.12v-117.12c0-16.096 13.024-29.12 29.12-29.12h93.536v-93.504c0-16.096 13.024-29.12 29.12-29.12h117.12c16.096 0 29.12 13.024 29.12 29.12v93.504h93.536c16.096 0 29.12 13.024 29.12 29.12v117.12c0 16.096-13.024 29.12-29.12 29.12zM895.584 235.456h-93.536c-16.096 0-29.12-13.024-29.12-29.12v-93.504h-58.88v93.504c0 16.096-13.024 29.12-29.12 29.12h-93.536v58.88h93.536c16.096 0 29.12 13.024 29.12 29.12v93.504h58.88v-93.504c0-16.096 13.024-29.12 29.12-29.12h93.536v-58.88z" />
<glyph unicode="&#xe914;" glyph-name="heart" d="M486.4-12.8c-4.288 0-8.544 1.088-12.448 3.232-4.8 2.656-119.104 66.624-235.104 171.36-68.672 61.952-123.456 125.344-162.976 188.416-50.368 80.448-75.872 160.704-75.872 238.592 0 148.224 120.576 268.8 268.8 268.8 50.176 0 103.488-18.784 150.080-52.928 27.232-19.968 50.432-44.032 67.52-69.568 17.088 25.536 40.288 49.6 67.52 69.568 46.592 34.144 99.904 52.928 150.080 52.928 148.224 0 268.8-120.576 268.8-268.8 0-77.888-25.536-158.144-75.872-238.592-39.488-63.072-94.304-126.464-162.912-188.416-116.032-104.768-230.304-168.704-235.104-171.36-3.904-2.144-8.128-3.232-12.448-3.232zM268.8 806.4c-119.968 0-217.6-97.632-217.6-217.6 0-155.648 120.32-297.056 221.248-388.352 90.112-81.504 181.44-138.656 213.952-158.048 32.512 19.392 123.84 76.544 213.952 158.048 100.928 91.232 221.248 232.704 221.248 388.352 0 119.968-97.632 217.6-217.6 217.6-87.2 0-171.872-71.744-193.344-136.096-3.488-10.432-13.248-17.504-24.256-17.504s-20.8 7.072-24.256 17.504c-21.44 64.352-106.144 136.096-193.344 136.096z" />
<glyph unicode="&#xe915;" glyph-name="heart-pulse" d="M486.4-12.8c-4.288 0-8.544 1.088-12.448 3.232-5.952 3.328-147.296 82.496-274.88 208.992-10.048 9.92-10.080 26.176-0.16 36.192s26.176 10.080 36.192 0.16c101.312-100.448 214.336-171.328 251.296-193.344 37.024 22.080 150.112 93.024 251.296 193.344 10.048 9.92 26.272 9.888 36.192-0.16s9.888-26.272-0.16-36.192c-127.648-126.528-268.96-205.664-274.88-208.992-3.904-2.144-8.128-3.232-12.448-3.232zM65.472 396.8c-9.632 0-18.848 5.44-23.2 14.688-28.064 59.648-42.304 119.296-42.304 177.312 0 148.224 120.576 268.8 268.8 268.8 50.176 0 103.488-18.784 150.080-52.928 27.232-19.968 50.432-44.032 67.52-69.568 17.088 25.536 40.288 49.6 67.52 69.568 46.592 34.144 99.904 52.928 150.080 52.928 148.224 0 268.8-120.576 268.8-268.8 0-58.016-14.24-117.664-42.304-177.312-6.048-12.8-21.248-18.272-34.048-12.288s-18.272 21.248-12.288 34.048c24.832 52.8 37.44 105.12 37.44 155.488 0 119.968-97.632 217.6-217.6 217.6-87.2 0-171.872-71.744-193.344-136.096-3.488-10.432-13.248-17.504-24.256-17.504s-20.8 7.072-24.256 17.504c-21.44 64.352-106.144 136.096-193.344 136.096-119.968 0-217.6-97.632-217.6-217.6 0-50.368 12.608-102.72 37.44-155.488 6.048-12.8 0.512-28.064-12.288-34.048-3.52-1.632-7.232-2.464-10.848-2.464zM538.368 192c-0.256 0-0.448 0-0.672 0-10.336 0.192-29.12 5.568-38.56 39.232l-62.304 221.888-41.312-167.872c-8.096-32.928-26.88-39.84-37.376-40.96s-30.304 1.376-45.504 31.744l-31.040 62.016c-1.472 2.976-2.88 4.8-3.904 5.984-0.16-0.192-0.352-0.448-0.576-0.768-18.944-27.808-61.024-48.8-97.952-48.8h-51.2c-14.144 0-25.6 11.456-25.6 25.6s11.456 25.6 25.6 25.6h51.2c21.568 0 47.168 13.92 55.648 26.432 11.424 16.736 28 25.664 45.632 24.48 19.136-1.28 36.256-14.272 46.944-35.648l22.784-45.568 47.936 194.72c8.096 32.768 24.672 39.872 37.184 40.096s29.28-6.4 38.464-38.912l65.728-234.304 60.32 184.736c10.496 32.16 29.792 37.696 40.352 38.144s30.208-3.488 43.36-34.656l37.056-88c6.976-16.48 29.6-31.552 47.456-31.552h76.8c14.144 0 25.6-11.456 25.6-25.6s-11.456-25.6-25.6-25.6h-76.8c-38.24 0-79.808 27.584-94.656 62.88l-30.304 72-65.216-199.68c-10.592-32.448-28.992-37.536-39.488-37.536z" />
<glyph unicode="&#xe916;" glyph-name="health-gift" d="M947.2 704h-153.664c16.128 21.408 25.664 48.032 25.664 76.8 0 70.56-57.44 128-128 128-71.168 0-130.88-56.384-160.096-90.016-17.728-20.32-32.96-42.144-44.704-63.232-11.712 21.088-26.976 42.848-44.704 63.232-29.248 33.6-88.928 90.016-160.096 90.016-70.56 0-128-57.44-128-128 0-28.768 9.568-55.392 25.664-76.8h-153.664c-14.144 0-25.6-11.456-25.6-25.6v-153.6c0-14.144 11.456-25.6 25.6-25.6h25.6v-486.4c0-42.336 34.464-76.8 76.8-76.8h716.8c42.336 0 76.8 34.464 76.8 76.8v486.4h25.6c14.144 0 25.6 11.456 25.6 25.6v153.6c0 14.144-11.456 25.6-25.6 25.6zM569.696 785.216c40.032 46.016 84.32 72.384 121.504 72.384 42.336 0 76.8-34.464 76.8-76.8s-34.464-76.8-76.8-76.8h-172.96c8.864 22.624 26.784 52.832 51.456 81.216zM563.2-12.8h-153.6v665.6h153.6v-665.6zM204.8 780.8c0 42.336 34.464 76.8 76.8 76.8 37.184 0 81.472-26.368 121.504-72.384 24.672-28.352 42.592-58.56 51.456-81.216h-172.96c-42.336 0-76.8 34.464-76.8 76.8zM51.2 652.8h307.2v-102.4h-307.2v102.4zM102.4 12.8v486.4h256v-512h-230.4c-14.144 0-25.6 11.456-25.6 25.6zM870.4 12.8c0-14.144-11.456-25.6-25.6-25.6h-230.4v512h256v-486.4zM921.6 550.4h-307.2v102.4h307.2v-102.4z" />
<glyph unicode="&#xe917;" glyph-name="cross" d="M548.192 422.4l289.088 289.088c9.984 9.984 9.984 26.208 0 36.192s-26.208 9.984-36.192 0l-289.088-289.088-289.088 289.088c-9.984 9.984-26.208 9.984-36.192 0s-9.984-26.208 0-36.192l289.088-289.088-289.088-289.088c-9.984-9.984-9.984-26.208 0-36.192 5.024-5.024 11.584-7.488 18.112-7.488s13.12 2.496 18.112 7.488l289.088 289.088 289.088-289.088c5.024-5.024 11.584-7.488 18.112-7.488s13.12 2.496 18.112 7.488c9.984 9.984 9.984 26.208 0 36.192l-289.088 289.088z" />
<glyph unicode="&#xe918;" glyph-name="cross-circle" d="M733.792 236.736l-208.896 185.664 208.896 185.664c10.56 9.376 11.52 25.536 2.144 36.16s-25.536 11.52-36.16 2.144l-213.408-189.696-213.408 189.696c-10.56 9.376-26.72 8.448-36.16-2.144s-8.448-26.72 2.144-36.16l208.896-185.664-208.896-185.664c-10.56-9.376-11.52-25.536-2.144-36.16 5.056-5.696 12.096-8.608 19.136-8.608 6.048 0 12.128 2.144 16.992 6.464l213.408 189.696 213.408-189.696c4.864-4.352 10.944-6.464 16.992-6.464 7.072 0 14.080 2.912 19.136 8.608 9.376 10.56 8.448 26.72-2.144 36.16zM486.4-64c-129.952 0-252.064 50.592-343.968 142.432s-142.432 214.016-142.432 343.904c0 129.952 50.592 252.064 142.432 343.968s214.016 142.496 343.968 142.496c129.952 0 252.064-50.592 343.968-142.496s142.432-214.016 142.432-343.968-50.592-252.064-142.432-343.904c-91.84-91.84-214.016-142.432-343.968-142.432zM486.4 857.6c-239.968 0-435.2-195.232-435.2-435.2s195.232-435.2 435.2-435.2 435.2 195.232 435.2 435.2-195.232 435.2-435.2 435.2z" />
<glyph unicode="&#xe919;" glyph-name="calendar" d="M947.2 857.6h-128v25.6c0 14.144-11.456 25.6-25.6 25.6s-25.6-11.456-25.6-25.6v-25.6h-512v25.6c0 14.144-11.456 25.6-25.6 25.6s-25.6-11.456-25.6-25.6v-25.6h-128c-42.336 0-76.8-34.464-76.8-76.8v-716.8c0-42.336 34.464-76.8 76.8-76.8h870.4c42.336 0 76.8 34.464 76.8 76.8v716.8c0 42.336-34.464 76.8-76.8 76.8zM76.8 806.4h128v-76.8c0-14.144 11.456-25.6 25.6-25.6s25.6 11.456 25.6 25.6v76.8h512v-76.8c0-14.144 11.456-25.6 25.6-25.6s25.6 11.456 25.6 25.6v76.8h128c14.144 0 25.6-11.456 25.6-25.6v-128h-921.6v128c0 14.144 11.456 25.6 25.6 25.6zM947.2 38.4h-870.4c-14.144 0-25.6 11.456-25.6 25.6v537.6h921.6v-537.6c0-14.144-11.456-25.6-25.6-25.6zM384 448h-51.2c-14.144 0-25.6 11.456-25.6 25.6s11.456 25.6 25.6 25.6h51.2c14.144 0 25.6-11.456 25.6-25.6s-11.456-25.6-25.6-25.6zM537.6 448h-51.2c-14.144 0-25.6 11.456-25.6 25.6s11.456 25.6 25.6 25.6h51.2c14.144 0 25.6-11.456 25.6-25.6s-11.456-25.6-25.6-25.6zM691.2 448h-51.2c-14.144 0-25.6 11.456-25.6 25.6s11.456 25.6 25.6 25.6h51.2c14.144 0 25.6-11.456 25.6-25.6s-11.456-25.6-25.6-25.6zM844.8 448h-51.2c-14.144 0-25.6 11.456-25.6 25.6s11.456 25.6 25.6 25.6h51.2c14.144 0 25.6-11.456 25.6-25.6s-11.456-25.6-25.6-25.6zM230.4 345.6h-51.2c-14.144 0-25.6 11.456-25.6 25.6s11.456 25.6 25.6 25.6h51.2c14.144 0 25.6-11.456 25.6-25.6s-11.456-25.6-25.6-25.6zM384 345.6h-51.2c-14.144 0-25.6 11.456-25.6 25.6s11.456 25.6 25.6 25.6h51.2c14.144 0 25.6-11.456 25.6-25.6s-11.456-25.6-25.6-25.6zM537.6 345.6h-51.2c-14.144 0-25.6 11.456-25.6 25.6s11.456 25.6 25.6 25.6h51.2c14.144 0 25.6-11.456 25.6-25.6s-11.456-25.6-25.6-25.6zM691.2 345.6h-51.2c-14.144 0-25.6 11.456-25.6 25.6s11.456 25.6 25.6 25.6h51.2c14.144 0 25.6-11.456 25.6-25.6s-11.456-25.6-25.6-25.6zM844.8 345.6h-51.2c-14.144 0-25.6 11.456-25.6 25.6s11.456 25.6 25.6 25.6h51.2c14.144 0 25.6-11.456 25.6-25.6s-11.456-25.6-25.6-25.6zM230.4 243.2h-51.2c-14.144 0-25.6 11.456-25.6 25.6s11.456 25.6 25.6 25.6h51.2c14.144 0 25.6-11.456 25.6-25.6s-11.456-25.6-25.6-25.6zM384 243.2h-51.2c-14.144 0-25.6 11.456-25.6 25.6s11.456 25.6 25.6 25.6h51.2c14.144 0 25.6-11.456 25.6-25.6s-11.456-25.6-25.6-25.6zM537.6 243.2h-51.2c-14.144 0-25.6 11.456-25.6 25.6s11.456 25.6 25.6 25.6h51.2c14.144 0 25.6-11.456 25.6-25.6s-11.456-25.6-25.6-25.6zM691.2 243.2h-51.2c-14.144 0-25.6 11.456-25.6 25.6s11.456 25.6 25.6 25.6h51.2c14.144 0 25.6-11.456 25.6-25.6s-11.456-25.6-25.6-25.6zM844.8 243.2h-51.2c-14.144 0-25.6 11.456-25.6 25.6s11.456 25.6 25.6 25.6h51.2c14.144 0 25.6-11.456 25.6-25.6s-11.456-25.6-25.6-25.6zM230.4 140.8h-51.2c-14.144 0-25.6 11.456-25.6 25.6s11.456 25.6 25.6 25.6h51.2c14.144 0 25.6-11.456 25.6-25.6s-11.456-25.6-25.6-25.6zM384 140.8h-51.2c-14.144 0-25.6 11.456-25.6 25.6s11.456 25.6 25.6 25.6h51.2c14.144 0 25.6-11.456 25.6-25.6s-11.456-25.6-25.6-25.6zM537.6 140.8h-51.2c-14.144 0-25.6 11.456-25.6 25.6s11.456 25.6 25.6 25.6h51.2c14.144 0 25.6-11.456 25.6-25.6s-11.456-25.6-25.6-25.6zM691.2 140.8h-51.2c-14.144 0-25.6 11.456-25.6 25.6s11.456 25.6 25.6 25.6h51.2c14.144 0 25.6-11.456 25.6-25.6s-11.456-25.6-25.6-25.6zM844.8 140.8h-51.2c-14.144 0-25.6 11.456-25.6 25.6s11.456 25.6 25.6 25.6h51.2c14.144 0 25.6-11.456 25.6-25.6s-11.456-25.6-25.6-25.6z" />
<glyph unicode="&#xe91a;" glyph-name="home" d="M1017.408 337.152l-452.032 499.616c-14.016 15.52-32.96 24.064-53.344 24.064 0 0 0 0 0 0-20.32 0-39.264-8.544-53.344-24.064l-452.032-499.616c-9.472-10.496-8.64-26.688 1.792-36.16 4.928-4.448 11.072-6.592 17.152-6.592 6.976 0 13.92 2.816 19.008 8.448l108.992 120.48v-410.528c0-42.336 34.464-76.8 76.8-76.8h563.2c42.336 0 76.8 34.464 76.8 76.8v410.528l108.992-120.48c9.472-10.496 25.664-11.328 36.16-1.792s11.328 25.664 1.792 36.16zM614.4-12.8h-204.8v230.4c0 14.144 11.456 25.6 25.6 25.6h153.6c14.144 0 25.6-11.456 25.6-25.6v-230.4zM819.2 12.8c0-14.144-11.456-25.6-25.6-25.6h-128v230.4c0 42.336-34.464 76.8-76.8 76.8h-153.6c-42.336 0-76.8-34.464-76.8-76.8v-230.4h-128c-14.144 0-25.6 11.456-25.6 25.6v467.104l291.84 322.56c4.192 4.672 9.664 7.232 15.36 7.232s11.168-2.56 15.36-7.232l291.84-322.56v-467.104z" />
<glyph unicode="&#xe91b;" glyph-name="chevron-right" d="M256-64c-6.56 0-13.12 2.496-18.112 7.488-9.984 9.984-9.984 26.208 0 36.192l442.688 442.688-442.688 442.688c-9.984 9.984-9.984 26.208 0 36.192s26.208 9.984 36.192 0l460.8-460.8c9.984-9.984 9.984-26.208 0-36.192l-460.8-460.8c-5.024-5.024-11.584-7.488-18.112-7.488z" />
<glyph unicode="&#xe91c;" glyph-name="chevron-right-circle" d="M830.368 766.368c-91.84 91.84-214.016 142.432-343.968 142.432s-252.064-50.592-343.968-142.432-142.432-214.016-142.432-343.904 50.592-252.064 142.432-343.968 214.016-142.432 343.968-142.432 252.064 50.592 343.968 142.432 142.432 214.016 142.432 343.968-50.592 252.064-142.432 343.904zM486.4-12.8c-239.968 0-435.2 195.232-435.2 435.2s195.232 435.2 435.2 435.2c239.968 0 435.2-195.232 435.2-435.2s-195.232-435.2-435.2-435.2zM409.6 140.8c-6.56 0-13.12 2.496-18.112 7.488-9.984 9.984-9.984 26.208 0 36.192l237.888 237.888-237.888 237.888c-9.984 9.984-9.984 26.208 0 36.192s26.208 9.984 36.192 0l256-256c9.984-9.984 9.984-26.208 0-36.192l-256-256c-5.024-5.024-11.584-7.488-18.112-7.488z" />
<glyph unicode="&#xe91d;" glyph-name="chevron-left-circle" d="M142.432 766.368c91.84 91.84 214.016 142.432 343.968 142.432s252.064-50.592 343.968-142.432 142.432-214.016 142.432-343.904-50.592-252.064-142.432-343.968-214.016-142.432-343.968-142.432-252.064 50.592-343.968 142.432-142.432 214.016-142.432 343.968 50.592 252.064 142.432 343.904zM486.4-12.8c239.968 0 435.2 195.232 435.2 435.2s-195.232 435.2-435.2 435.2c-239.968 0-435.2-195.232-435.2-435.2s195.232-435.2 435.2-435.2zM563.2 140.8c6.56 0 13.12 2.496 18.112 7.488 9.984 9.984 9.984 26.208 0 36.192l-237.888 237.888 237.888 237.888c9.984 9.984 9.984 26.208 0 36.192s-26.208 9.984-36.192 0l-256-256c-9.984-9.984-9.984-26.208 0-36.192l256-256c5.024-5.024 11.584-7.488 18.112-7.488z" />
<glyph unicode="&#xe91e;" glyph-name="chevron-left" d="M716.8-64c6.56 0 13.12 2.496 18.112 7.488 9.984 9.984 9.984 26.208 0 36.192l-442.688 442.688 442.688 442.688c9.984 9.984 9.984 26.208 0 36.192s-26.208 9.984-36.192 0l-460.8-460.8c-9.984-9.984-9.984-26.208 0-36.192l460.8-460.8c5.024-5.024 11.584-7.488 18.112-7.488z" />
<glyph unicode="&#xe91f;" glyph-name="warning" d="M461.568 763.264l-345.12-558.368c-37.28-60.32-10.112-108.896 60.448-108.896h670.208c70.528 0 97.6 48.736 60.448 108.896l-345.12 558.368c-27.776 44.928-72.992 45.056-100.832 0zM491.296 751.264c11.104 17.952 29.184 17.888 40.256 0l352.16-569.056c18.528-29.952 4.672-54.24-30.144-54.24h-684.288c-35.168 0-48.768 24.128-30.144 54.24l352.16 569.056zM512 576c-17.664 0-32-14.496-32-31.904v-192.192c0-17.632 14.208-31.904 32-31.904 17.664 0 32 14.496 32 31.904v192.192c0 17.632-14.208 31.904-32 31.904v0zM512 192c17.664 0 32 14.336 32 32s-14.336 32-32 32c-17.664 0-32-14.336-32-32s14.336-32 32-32v0z" />
<glyph unicode="&#xe920;" glyph-name="bar-graph" d="M512 917.333q52.992 0 90.496-37.504t37.504-90.496v-682.667q0-52.992-37.504-90.496t-90.496-37.504-90.496 37.504-37.504 90.496v682.667q0 52.992 37.504 90.496t90.496 37.504zM170.667 405.333q52.992 0 90.496-37.504t37.504-90.496v-170.667q0-52.992-37.504-90.496t-90.496-37.504-90.496 37.504-37.504 90.496v170.667q0 52.992 37.504 90.496t90.496 37.504zM170.667 320q-17.664 0-30.165-12.501t-12.501-30.165v-170.667q0-17.664 12.501-30.165t30.165-12.501 30.165 12.501 12.501 30.165v170.667q0 17.664-12.501 30.165t-30.165 12.501zM512 832q-17.664 0-30.165-12.501t-12.501-30.165v-682.667q0-17.664 12.501-30.165t30.165-12.501 30.165 12.501 12.501 30.165v682.667q0 17.664-12.501 30.165t-30.165 12.501zM853.333 661.333q52.992 0 90.496-37.504t37.504-90.496v-426.667q0-52.992-37.504-90.496t-90.496-37.504-90.496 37.504-37.504 90.496v426.667q0 52.992 37.504 90.496t90.496 37.504zM853.333 576q-17.664 0-30.165-12.501t-12.501-30.165v-426.667q0-17.664 12.501-30.165t30.165-12.501 30.165 12.501 12.501 30.165v426.667q0 17.664-12.501 30.165t-30.165 12.501z" />
<glyph unicode="&#xe921;" glyph-name="pie-chart" d="M435.2-64c-116.224 0-225.536 45.248-307.712 127.488s-127.488 191.488-127.488 307.712c0 116.224 45.248 225.536 127.488 307.712s191.488 127.488 307.712 127.488c14.144 0 25.6-11.456 25.6-25.6v-384h384c14.144 0 25.6-11.456 25.6-25.6 0-116.224-45.248-225.536-127.488-307.712s-191.488-127.488-307.712-127.488zM409.6 754.368c-199.84-13.216-358.4-180.032-358.4-383.168 0-211.776 172.224-384 384-384 203.104 0 369.92 158.56 383.168 358.4h-383.168c-14.144 0-25.6 11.456-25.6 25.6v383.168zM947.2 448h-409.6c-14.144 0-25.6 11.456-25.6 25.6v409.6c0 14.144 11.456 25.6 25.6 25.6 116.224 0 225.536-45.248 307.712-127.488s127.488-191.488 127.488-307.712c0-14.144-11.456-25.6-25.6-25.6zM563.2 499.2h357.568c-12.64 191.392-166.208 344.896-357.568 357.568v-357.568z" />
<glyph unicode="&#xe922;" glyph-name="help" d="M512 917.333q91.989 0 178.347-34.987t153.685-102.315 102.315-153.685 34.987-178.347-34.987-178.347-102.315-153.685-153.685-102.315-178.347-34.987-178.347 34.987-153.685 102.315-102.315 153.685-34.987 178.347 34.987 178.347 102.315 153.685 153.685 102.315 178.347 34.987zM333.995 565.675l-121.984 121.984q-41.344-51.669-62.677-113.323t-21.333-126.336 21.333-126.336 62.677-113.323l121.984 121.984q-35.328 53.333-35.328 117.675t35.328 117.675zM751.659 148.011l-121.984 121.984q-53.333-35.328-117.675-35.328t-117.675 35.328l-121.984-121.984q51.669-41.344 113.323-62.677t126.336-21.333 126.336 21.333 113.323 62.677zM512 576q-52.992 0-90.496-37.504t-37.504-90.496 37.504-90.496 90.496-37.504 90.496 37.504 37.504 90.496-37.504 90.496-90.496 37.504zM512 832q-64.683 0-126.336-21.333t-113.323-62.677l121.984-121.984q53.333 35.328 117.675 35.328t117.675-35.328l121.984 121.984q-51.669 41.344-113.323 62.677t-126.336 21.333zM811.989 687.659l-121.984-121.984q35.328-53.333 35.328-117.675t-35.328-117.675l121.984-121.984q41.344 51.669 62.677 113.323t21.333 126.336-21.333 126.336-62.677 113.323z" />
<glyph unicode="&#xe923;" glyph-name="question-circle" d="M830.368 766.368c-91.84 91.84-214.016 142.432-343.968 142.432s-252.064-50.592-343.968-142.432-142.432-214.016-142.432-343.904 50.592-252.064 142.432-343.968 214.016-142.432 343.968-142.432 252.064 50.592 343.968 142.432 142.432 214.016 142.432 343.968-50.592 252.064-142.432 343.904zM486.4-12.8c-239.968 0-435.2 195.232-435.2 435.2s195.232 435.2 435.2 435.2c239.968 0 435.2-195.232 435.2-435.2s-195.232-435.2-435.2-435.2zM486.4 192c-14.144 0-25.6 11.456-25.6 25.6v102.4c0 14.144 11.456 25.6 25.6 25.6 98.816 0 179.2 80.384 179.2 179.2s-80.384 179.2-179.2 179.2-179.2-80.384-179.2-179.2c0-14.144-11.456-25.6-25.6-25.6s-25.6 11.456-25.6 25.6c0 127.040 103.36 230.4 230.4 230.4s230.4-103.36 230.4-230.4c0-118.368-89.76-216.224-204.8-228.96v-78.24c0-14.144-11.456-25.6-25.6-25.6zM486.4 38.4c0 0 0 0 0 0-14.144 0-25.6 11.456-25.6 25.6v51.2c0 14.144 11.456 25.6 25.6 25.6 0 0 0 0 0 0 14.144 0 25.6-11.456 25.6-25.6v-51.2c0-14.144-11.456-25.6-25.6-25.6z" />
<glyph unicode="&#xe924;" glyph-name="watch" d="M384 960h256q52.992 0 90.496-37.504t37.504-90.496v-98.005q59.989-53.333 93.995-127.829t34.005-158.165-34.005-157.995-93.995-128v-98.005q0-52.992-37.504-90.496t-90.496-37.504h-256q-52.992 0-90.496 37.504t-37.504 90.496v98.005q-59.989 53.675-93.995 128t-34.005 157.995 34.005 158.165 93.995 127.829v98.005q0 52.992 37.504 90.496t90.496 37.504zM682.667 64v40.021q-80-40.021-170.667-40.021t-170.667 40.021v-40.021q0-17.664 12.501-30.165t30.165-12.501h256q17.664 0 30.165 12.501t12.501 30.165zM512 746.667q-60.672 0-116.011-23.68t-95.317-63.659-63.659-95.317-23.68-116.011 23.68-116.011 63.659-95.317 95.317-63.659 116.011-23.68 116.011 23.68 95.317 63.659 63.659 95.317 23.68 116.011-23.68 116.011-63.659 95.317-95.317 63.659-116.011 23.68zM512 661.333q17.664 0 30.165-12.501t12.501-30.165v-153.003l73.003-72.661q12.331-12.331 12.331-30.336t-12.331-30.336-30.336-12.331-30.336 12.331l-85.333 85.333q-12.331 12.331-12.331 30.336v170.667q0 17.664 12.501 30.165t30.165 12.501zM640 874.667h-256q-17.664 0-30.165-12.501t-12.501-30.165v-40.021q80 40.021 170.667 40.021t170.667-40.021v40.021q0 17.664-12.501 30.165t-30.165 12.501z" />
<glyph unicode="&#xe925;" glyph-name="clock" d="M512 917.333q95.659 0 182.485-37.163t149.675-100.011 100.011-149.675 37.163-182.485-37.163-182.485-100.011-149.675-149.675-100.011-182.485-37.163-182.485 37.163-149.675 100.011-100.011 149.675-37.163 182.485 37.163 182.485 100.011 149.675 149.675 100.011 182.485 37.163zM512 832q-77.995 0-149.163-30.507t-122.496-81.835-81.835-122.496-30.507-149.163 30.507-149.163 81.835-122.496 122.496-81.835 149.163-30.507 149.163 30.507 122.496 81.835 81.835 122.496 30.507 149.163-30.507 149.163-81.835 122.496-122.496 81.835-149.163 30.507zM512 746.667q17.664 0 30.165-12.501t12.501-30.165v-238.336l115.669-115.328q12.331-12.331 12.331-30.336t-12.331-30.336-30.336-12.331-30.336 12.331l-128 128q-12.331 12.331-12.331 30.336v256q0 17.664 12.501 30.165t30.165 12.501z" />
<glyph unicode="&#xe926;" glyph-name="map-marker" d="M512-64c-7.84 0-15.264 3.584-20.128 9.792-2.912 3.744-72.608 92.864-143.2 224.512-41.568 77.472-74.752 153.536-98.56 226.112-30.048 91.488-45.248 177.76-45.248 256.416 0 169.376 137.824 307.2 307.2 307.2s307.2-137.824 307.2-307.2c0-78.656-15.264-164.864-45.248-256.416-23.808-72.544-56.992-148.64-98.56-226.112-70.656-131.648-140.288-220.768-143.2-224.512-4.864-6.208-12.288-9.792-20.128-9.792zM512 908.8c-141.152 0-256-114.848-256-256 0-166.592 74.912-341.184 137.792-458.304 46.176-86.080 92.608-154.304 118.208-189.952 25.696 35.776 72.448 104.448 118.688 190.784 62.624 116.896 137.312 291.168 137.312 457.472 0 141.152-114.848 256-256 256zM512 499.2c-84.672 0-153.6 68.928-153.6 153.6s68.928 153.6 153.6 153.6 153.6-68.928 153.6-153.6-68.928-153.6-153.6-153.6zM512 755.2c-56.48 0-102.4-45.92-102.4-102.4s45.92-102.4 102.4-102.4c56.48 0 102.4 45.92 102.4 102.4s-45.92 102.4-102.4 102.4z" />
<glyph unicode="&#xe927;" glyph-name="stairs" d="M331.936 116.385h-200.931c-72.235 0-131.005 58.77-131.005 131.010s58.77 131.005 131.005 131.005h104.020l109.931 85.999v109.706c0 42.036 34.197 76.228 76.233 76.228 38.938 0 71.154-29.343 75.685-67.083l186.144 145.635c2.583 2.016 5.769 3.117 9.047 3.117h200.931c72.24 0 131.005-58.77 131.005-131.005s-58.77-131.005-131.005-131.005h-102.156l-449.876-350.5c-2.583-2.016-5.759-3.107-9.028-3.107zM131.005 349.042c-56.049 0-101.647-45.598-101.647-101.647s45.598-101.647 101.647-101.647h195.886l449.876 350.5c2.579 2.011 5.754 3.102 9.023 3.102h107.201c56.049 0 101.647 45.598 101.647 101.647s-45.598 101.647-101.647 101.647h-195.871l-328.334-256.867c-0.083-0.064-0.161-0.127-0.24-0.186l-119.418-93.432c-2.583-2.016-5.769-3.117-9.047-3.117h-109.075zM421.189 620.975c-25.845 0-46.875-21.025-46.875-46.87v-86.738l93.75 73.341v13.392c0 25.855-21.030 46.875-46.875 46.875zM264.221 278.358h-132.111c-8.108 0-14.679 6.571-14.679 14.679s6.571 14.679 14.679 14.679h127.095l451.080 349.222c2.569 1.991 5.73 3.073 8.984 3.073h146.79c8.108 0 14.679-6.571 14.679-14.679s-6.571-14.679-14.679-14.679h-141.774l-451.080-349.222c-2.569-1.991-5.73-3.073-8.984-3.073zM421.189 660.848c-33.14 0-60.105 26.637-60.105 59.381s26.96 59.386 60.105 59.386c33.14 0 60.101-26.637 60.101-59.386 0-32.744-26.96-59.381-60.101-59.381zM421.189 750.252c-16.954 0-30.748-13.47-30.748-30.028 0-16.553 13.793-30.023 30.748-30.023 16.949 0 30.743 13.47 30.743 30.023 0 16.558-13.793 30.028-30.743 30.028z" />
<glyph unicode="&#xe928;" glyph-name="flag1" d="M256 624v208c0 0 95.232 71.552 256 0s256 0 256 0v-352c0 0-95.264-69.984-256 0-105.952 46.144-183.488 31.456-224 16.064v-464.064h-32v592zM496.672 803.2c-131.136 57.664-208.672 9.6-208.672 9.6v-282.816c0 0 100.928 40.544 236.064-20.64 126.56-57.28 212.512-10.88 212.512-10.88v285.536c0 0-96.736-43.744-239.904 19.2v0 0z" />
<glyph unicode="&#xe929;" glyph-name="flag" d="M76.8-12.8c-14.144 0-25.6 11.456-25.6 25.6v768c0 14.144 11.456 25.6 25.6 25.6s25.6-11.456 25.6-25.6v-768c0-14.144-11.456-25.6-25.6-25.6zM179.2 448c-5.312 0-10.752 1.696-15.36 5.12-11.328 8.512-13.632 24.512-5.12 35.84 3.424 4.608 85.824 112.64 199.68 112.64 86.72 0 144.032-30.656 194.624-57.696 44.8-23.968 83.52-44.704 138.176-44.704 112.224 0 192.416 106.496 238.080 190.368-35.744-20.32-81.408-36.768-135.68-36.768-112.992 0-171.36 58.368-222.912 109.888-50.944 50.944-94.912 94.912-186.688 94.912-113.856 0-183.648-91.232-184.32-92.16-8.512-11.328-24.512-13.632-35.84-5.12s-13.632 24.512-5.12 35.84c3.424 4.608 86.080 112.64 225.28 112.64 112.992 0 171.36-58.368 222.912-109.888 50.944-50.944 94.912-94.912 186.688-94.912 113.856 0 183.648 91.232 184.32 92.16 7.52 10.048 21.248 13.152 32.352 7.328s16.384-18.848 12.384-30.784c-1.088-3.264-27.296-80.96-79.776-159.68-31.328-47.008-65.632-84.64-101.952-111.872-47.008-35.232-97.376-53.088-149.76-53.088-67.488 0-115.712 25.792-162.368 50.752-49.664 26.56-96.576 51.648-170.432 51.648-88.576 0-158.048-91.232-158.72-92.16-5.024-6.72-12.704-10.24-20.48-10.24z" />
<glyph unicode="&#xe92a;" glyph-name="medicine" d="M305.536 87.488c0-18.24-14.784-33.024-33.024-33.024-150.272 0-272.512 122.24-272.512 272.512v360.512c0 150.272 122.24 272.512 272.512 272.512s272.512-122.24 272.512-272.512c0-18.24-14.784-33.024-33.024-33.024s-33.024 14.784-33.024 33.024c0 113.856-92.608 206.464-206.464 206.464s-206.464-92.64-206.464-206.464v-147.648h172.64c18.24 0 33.024-14.784 33.024-33.024s-14.784-33.024-33.024-33.024h-172.64v-146.848c0-113.856 92.608-206.464 206.464-206.464 18.24 0 33.024-14.784 33.024-33.024zM377.216 647.104c18.24 0 33.024 14.784 33.024 33.024 0 85.632-69.664 155.264-155.296 155.264-18.24 0-33.024-14.784-33.024-33.024s14.784-33.024 33.024-33.024c49.216 0 89.248-40.032 89.248-89.248 0-18.24 14.784-33.024 33.024-33.024zM671.648 518.208c-18.24 0-33.024-14.784-33.024-33.024v-393.728c0-18.24 14.784-33.024 33.024-33.024s33.024 14.784 33.024 33.024v393.728c0 18.24-14.784 33.024-33.024 33.024zM1024 288.352c0-194.272-158.048-352.352-352.352-352.352s-352.352 158.048-352.352 352.352 158.048 352.352 352.352 352.352c194.272 0 352.352-158.048 352.352-352.352zM957.952 288.352c0 157.856-128.448 286.304-286.304 286.304s-286.304-128.448-286.304-286.304 128.448-286.304 286.304-286.304c157.856 0 286.304 128.448 286.304 286.304z" />
<glyph unicode="&#xe92b;" glyph-name="search" d="M621.664 306.336c-44.48-31.68-98.88-50.336-157.664-50.336-150.208 0-272 121.792-272 272s121.792 272 272 272c150.208 0 272-121.792 272-272 0-75.104-30.432-143.104-79.68-192.32l191.904-191.904c8.8-8.8 8.576-22.912-0.256-31.744-8.896-8.896-23.040-8.96-31.744-0.256l-194.592 194.592zM464 288c132.544 0 240 107.456 240 240s-107.456 240-240 240c-132.544 0-240-107.456-240-240s107.456-240 240-240v0z" />
<glyph unicode="&#xe92c;" glyph-name="user" d="M486.4 396.8c-155.296 0-281.6 126.304-281.6 281.6s126.304 281.6 281.6 281.6 281.6-126.304 281.6-281.6-126.304-281.6-281.6-281.6zM486.4 908.8c-127.040 0-230.4-103.36-230.4-230.4s103.36-230.4 230.4-230.4c127.040 0 230.4 103.36 230.4 230.4s-103.36 230.4-230.4 230.4zM896-64h-819.2c-42.336 0-76.8 34.464-76.8 76.8 0 3.488 0.704 86.272 62.72 168.96 36.096 48.128 85.504 86.368 146.88 113.6 74.944 33.344 168.096 50.24 276.8 50.24s201.824-16.896 276.8-50.24c61.376-27.296 110.784-65.472 146.88-113.6 62.016-82.688 62.72-165.472 62.72-168.96 0-42.336-34.464-76.8-76.8-76.8zM486.4 294.4c-178.528 0-310.272-48.8-380.992-141.12-52.992-69.184-54.176-139.872-54.208-140.608 0-14.016 11.456-25.504 25.6-25.504h819.2c14.144 0 25.6 11.456 25.6 25.6 0 0.608-1.184 71.328-54.208 140.48-70.752 92.32-202.496 141.12-380.992 141.12z" />
<glyph unicode="&#xe92d;" glyph-name="users" d="M947.2 38.4h-563.2c-42.336 0-76.8 34.464-76.8 76.8 0 2.464 0.576 60.928 47.296 118.528 26.88 33.088 63.552 59.296 108.96 77.92 54.848 22.528 122.88 33.888 202.144 33.888s147.264-11.424 202.144-33.888c45.408-18.624 82.080-44.864 108.96-77.92 46.784-57.6 47.296-116.064 47.296-118.528 0-42.336-34.464-76.8-76.8-76.8zM358.4 115.040c0.064-14.080 11.52-25.44 25.6-25.44h563.2c14.080 0 25.536 11.424 25.6 25.44-0.064 1.792-1.632 45.824-37.824 88.768-49.856 59.232-143.008 90.528-269.376 90.528s-219.488-31.328-269.376-90.528c-36.192-43.008-37.792-86.976-37.824-88.768zM665.6 396.8c-112.96 0-204.8 91.84-204.8 204.8s91.84 204.8 204.8 204.8 204.8-91.84 204.8-204.8c0-112.96-91.84-204.8-204.8-204.8zM665.6 755.2c-84.672 0-153.6-68.928-153.6-153.6s68.928-153.6 153.6-153.6 153.6 68.928 153.6 153.6-68.928 153.6-153.6 153.6zM230.4 38.4h-153.6c-42.336 0-76.8 34.464-76.8 76.8 0 1.888 0.416 47.456 33.952 92.16 19.36 25.856 45.76 46.272 78.496 60.832 39.104 17.408 87.456 26.208 143.616 26.208 9.152 0 18.24-0.256 26.976-0.704 14.144-0.768 24.928-12.8 24.224-26.944s-12.8-24.992-26.944-24.224c-7.84 0.416-15.968 0.608-24.224 0.608-199.36 0-204.64-121.792-204.8-128.16 0.064-14.016 11.52-25.44 25.6-25.44h153.6c14.144 0 25.6-11.456 25.6-25.6s-11.456-25.6-25.6-25.6zM256 345.6c-84.672 0-153.6 68.928-153.6 153.6s68.928 153.6 153.6 153.6 153.6-68.928 153.6-153.6-68.928-153.6-153.6-153.6zM256 601.6c-56.48 0-102.4-45.92-102.4-102.4s45.92-102.4 102.4-102.4 102.4 45.92 102.4 102.4c0 56.48-45.92 102.4-102.4 102.4z" />
<glyph unicode="&#xe92e;" glyph-name="call-hospital" d="M1024 720.128c-0.064 36.672-27.968 77.088-62.368 90.144-129.888 47.712-285.408 71.712-449.824 69.44-161.024-2.208-316.416-29.216-449.568-78.112-34.272-12.992-62.176-53.408-62.24-90.112v-86.816c0-0.064 0-0.16 0-0.224 0-0.032 0-0.064 0-0.128 0-0.128 0-0.224 0.032-0.352 0.384-43.328 35.712-78.464 79.136-78.464h160.32c43.648 0 79.168 35.52 79.168 79.168 0 38.496-27.648 70.656-64.128 77.696v38.752c153.728 43.008 361.824 43.328 515.008 0.832v-39.584c-36.48-7.040-64.128-39.2-64.128-77.696 0-43.648 35.52-79.168 79.168-79.168h160.32c43.424 0 78.784 35.136 79.136 78.464 0 0.128 0.032 0.224 0.032 0.352 0 0.032 0 0.064 0 0.128s0 0.16 0 0.224v95.424zM993.952 639.36h-17.024c-8.288 0-15.040-6.72-15.040-15.040s6.72-15.040 15.040-15.040h14.56c-6.464-19.552-24.928-33.728-46.624-33.728h-160.32c-21.696 0-40.16 14.176-46.624 33.728h176c8.288 0 15.040 6.72 15.040 15.040s-6.72 15.040-15.040 15.040h-176.224c6.272 19.904 24.896 34.4 46.848 34.4 8.288 0 15.040 6.72 15.040 15.040v64.512c0 0.032 0 0.032 0 0.064 0 0.416-0.032 0.8-0.064 1.216 0 0.096 0 0.192-0.032 0.32-0.032 0.352-0.096 0.704-0.16 1.056-0.032 0.16-0.032 0.288-0.064 0.448-0.064 0.256-0.128 0.48-0.192 0.704s-0.128 0.512-0.192 0.736c0 0.064-0.032 0.096-0.064 0.128-0.48 1.504-1.216 2.912-2.144 4.192-0.992 1.376-2.24 2.592-3.68 3.584 0 0-0.032 0.032-0.032 0.032-0.224 0.16-0.448 0.288-0.704 0.416-0.192 0.128-0.384 0.256-0.576 0.352-0.128 0.064-0.288 0.128-0.416 0.192-0.32 0.16-0.608 0.32-0.928 0.448-0.096 0.032-0.192 0.064-0.32 0.128-0.384 0.16-0.736 0.288-1.12 0.384-0.032 0-0.032 0-0.064 0.032-160.96 47.616-385.728 47.744-548.576 0.576-0.256 0-0.48 0.032-0.736 0.032-8.288 0-15.040-6.72-15.040-15.040v-64.512c0-8.288 6.72-15.040 15.040-15.040 21.952 0 40.576-14.496 46.848-34.4h-31.808c-8.288 0-15.040-6.72-15.040-15.040s6.72-15.040 15.040-15.040h31.584c-6.464-19.552-24.928-33.728-46.624-33.728h-160.32c-21.696 0-40.16 14.176-46.624 33.728h158.976c8.288 0 15.040 6.72 15.040 15.040s-6.72 15.040-15.040 15.040h-161.44v72.096c0.032 24.384 20.064 53.376 42.688 61.952 127.968 47.008 284.064 74.080 439.456 76.192 160.768 2.208 312.576-21.152 438.912-67.552 22.784-8.64 42.784-37.632 42.816-61.984v-80.704zM741.344 505.056c-25.824 30.368-77.248 54.144-117.12 54.144h-224.448c-39.84 0-91.296-23.776-117.12-54.144l-189.472-222.912c-25.28-29.76-45.12-83.648-45.12-122.72v-64.128c0-43.648 35.52-79.168 79.168-79.168h769.504c43.648 0 79.168 35.52 79.168 79.168v64.128c0 39.040-19.808 92.96-45.12 122.72l-189.472 222.912zM945.856 95.296c0-27.072-22.016-49.088-49.088-49.088h-769.504c-27.072 0-49.088 22.016-49.088 49.088v64.128c0 31.776 17.376 79.040 37.952 103.264l189.472 222.912c20.064 23.616 63.2 43.552 94.208 43.552h224.448c31.008 0 74.144-19.936 94.208-43.552l189.472-222.912c20.576-24.192 37.952-71.488 37.952-103.264v-64.128zM640.256 350.816h-65.12v65.12c0 25.952-21.12 47.104-47.104 47.104h-32.064c-25.952 0-47.104-21.12-47.104-47.104v-65.12h-65.12c-25.952 0-47.104-21.12-47.104-47.104v-32.064c0-25.952 21.12-47.104 47.104-47.104h65.12v-65.12c0-25.952 21.12-47.104 47.104-47.104h32.064c25.952 0 47.104 21.12 47.104 47.104v65.12h65.12c25.952 0 47.104 21.12 47.104 47.104v32.064c0 25.952-21.12 47.104-47.104 47.104zM657.28 271.648c0-9.408-7.648-17.024-17.024-17.024h-80.16c-8.288 0-15.040-6.72-15.040-15.040v-80.16c0-9.408-7.648-17.024-17.024-17.024h-32.064c-9.376 0-17.024 7.648-17.024 17.024v80.16c0 8.288-6.72 15.040-15.040 15.040h-80.16c-9.376 0-17.024 7.648-17.024 17.024v32.064c0 9.408 7.648 17.024 17.024 17.024h80.16c8.288 0 15.040 6.72 15.040 15.040v80.16c0 9.408 7.648 17.024 17.024 17.024h32.064c9.408 0 17.024-7.648 17.024-17.024v-80.16c0-8.288 6.72-15.040 15.040-15.040h80.16c9.408 0 17.024-7.648 17.024-17.024v-32.064z" />
<glyph unicode="&#xe92f;" glyph-name="chevron-up" d="M0 192c0-6.56 2.496-13.12 7.488-18.112 9.984-9.984 26.208-9.984 36.192 0l442.688 442.688 442.688-442.688c9.984-9.984 26.208-9.984 36.192 0s9.984 26.208 0 36.192l-460.8 460.8c-9.984 9.984-26.208 9.984-36.192 0l-460.8-460.8c-5.024-5.024-7.488-11.584-7.488-18.112z" />
<glyph unicode="&#xe930;" glyph-name="chevron-down" d="M0 652.8c0 6.56 2.496 13.12 7.488 18.112 9.984 9.984 26.208 9.984 36.192 0l442.688-442.688 442.688 442.688c9.984 9.984 26.208 9.984 36.192 0s9.984-26.208 0-36.192l-460.8-460.8c-9.984-9.984-26.208-9.984-36.192 0l-460.8 460.8c-5.024 5.024-7.488 11.584-7.488 18.112z" />
<glyph unicode="&#xe931;" glyph-name="caret-left" d="M780.994 941.002c-12.662 12.669-27.667 18.998-44.997 18.998-17.334 0-32.339-6.329-45.001-18.998l-447.996-448c-12.662-12.669-18.998-27.663-18.998-44.997s6.336-32.339 18.998-44.997l447.996-448c12.658-12.669 27.663-19.012 45.001-19.012 17.331 0 32.335 6.343 44.997 19.012 12.669 12.658 19.008 27.663 19.008 44.997v896c-0.004 17.334-6.34 32.325-19.008 44.997z" />
<glyph unicode="&#xe932;" glyph-name="caret-right" d="M780.994 493.002l-447.996 448c-12.669 12.669-27.653 18.998-44.997 18.998s-32.339-6.329-45.008-18.998c-12.669-12.669-18.998-27.663-18.998-44.997v-895.996c0-17.331 6.329-32.335 18.998-44.997 12.683-12.669 27.677-19.012 45.008-19.012 17.334 0 32.328 6.343 44.997 19.012l447.996 448c12.658 12.655 19.012 27.66 19.012 44.997 0 17.331-6.35 32.325-19.012 44.994z" />
<glyph unicode="&#xe933;" glyph-name="caret-up" d="M1004.995 268.999l-447.997 447.993c-12.655 12.669-27.652 18.998-44.997 18.998s-32.339-6.329-45.007-18.998l-447.997-447.993c-12.669-12.669-18.998-27.666-18.998-44.997s6.329-32.339 18.998-44.997c12.683-12.669 27.677-19.001 45.007-19.001h895.99c17.334 0 32.339 6.333 45 19.001 12.655 12.655 19.008 27.663 19.008 44.997s-6.354 32.328-19.008 44.997z" />
<glyph unicode="&#xe934;" glyph-name="facebook" d="M587.515-64h-178.943c-13.516 0-24.485 10.969-24.485 24.485v420.276h-125.221c-13.516 0-24.485 10.969-24.485 24.485v173.312c0 13.516 10.969 24.485 24.485 24.485h125.221v103.282c-0.001 156.514 94.76 253.674 247.355 253.674 68.168 0 123.066-5.24 136.924-7.101 12.195-1.616 21.253-11.998 21.253-24.29v-154.947c0-13.516-10.969-24.485-24.485-24.485l-91.675-0.098c-52.938 0-61.459-17.629-61.459-59.892v-86.191h147.16c7.052 0 13.762-3.036 18.363-8.325 4.653-5.24 6.809-12.292 5.927-19.294l-22.331-173.311c-1.567-12.243-11.997-21.401-24.289-21.401h-124.83v-420.277c0.001-13.467-10.968-24.387-24.484-24.387zM433.058-15.028h129.97v420.276c0 13.516 10.969 24.485 24.485 24.485h127.767l16.063 124.34h-143.829c-13.516 0-24.485 10.969-24.485 24.485v110.676c0 46.719 11.459 108.865 110.432 108.865l67.239 0.049v108.375c-25.025 2.155-65.231 4.506-109.256 4.506-124.241 0-198.384-76.495-198.384-204.702v-127.767c0-13.516-10.969-24.485-24.485-24.485h-125.221v-124.34h125.221c13.516 0 24.485-10.969 24.485-24.485v-420.277z" />
<glyph unicode="&#xe935;" glyph-name="caret-down" d="M1004.992 717.007c-12.658 12.669-27.663 18.998-45 18.998h-895.987c-17.344 0-32.339-6.329-45.007-18.998-12.669-12.683-18.998-27.677-18.998-45.011 0-17.33 6.329-32.325 18.998-44.997l447.995-447.995c12.683-12.669 27.677-19.012 45.007-19.012s32.339 6.343 44.997 19.012l447.995 447.999c12.655 12.669 19.008 27.663 19.008 44.997 0 17.33-6.354 32.325-19.008 45.007z" />
<glyph unicode="&#xe936;" glyph-name="upload" d="M896-12.8h-819.2c-42.336 0-76.8 34.464-76.8 76.8v102.4c0 14.144 11.456 25.6 25.6 25.6s25.6-11.456 25.6-25.6v-102.4c0-14.144 11.456-25.6 25.6-25.6h819.2c14.144 0 25.6 11.456 25.6 25.6v102.4c0 14.144 11.456 25.6 25.6 25.6s25.6-11.456 25.6-25.6v-102.4c0-42.336-34.464-76.8-76.8-76.8zM760.512 517.312l-256 256c-9.984 9.984-26.208 9.984-36.192 0l-256-256c-9.984-9.984-9.984-26.208 0-36.192s26.208-9.984 36.192 0l212.288 212.288v-527.008c0-14.144 11.456-25.6 25.6-25.6s25.6 11.456 25.6 25.6v527.008l212.288-212.288c5.024-5.024 11.584-7.488 18.112-7.488s13.12 2.496 18.112 7.488c9.984 9.984 9.984 26.208 0 36.192z" />
<glyph unicode="&#xe937;" glyph-name="parking" d="M512 960c-282.286 0-512-229.714-512-512s229.714-512 512-512 512 229.714 512 512-229.714 512-512 512zM512-15.222c-255.4 0-463.222 207.822-463.222 463.222s207.822 463.222 463.222 463.222 463.222-207.822 463.222-463.222-207.822-463.222-463.222-463.222zM550.222 733.933h-195.821c-45.221 0-74.845-17.933-74.845-74.889v-432.98c0-38.201 24.892-63.98 63.912-63.98 38.998 0 63.98 25.78 63.98 63.98v152.113h141.977c124.044 0 195.023 75.686 195.023 177.867-0.004 124.842-86.537 177.889-194.226 177.889zM526.846 476.446h-119.402v159.219h106.155c63.179 0 102.978-23.444 102.978-79.62 0-48.333-38.265-79.599-89.731-79.599z" />
<glyph unicode="&#xe938;" glyph-name="close" d="M633.703 448l365.094 365.094c33.607 33.607 33.607 88.095 0 121.698-33.607 33.607-88.091 33.607-121.698 0l-365.099-365.099-365.099 365.104c-33.607 33.607-88.091 33.607-121.698 0-33.603-33.607-33.603-88.095 0-121.698l365.099-365.094-365.099-365.099c-33.603-33.607-33.603-88.095 0-121.698 33.607-33.607 88.091-33.607 121.698 0l365.099 365.099 365.099-365.099c33.603-33.607 88.091-33.607 121.698 0s33.607 88.091 0 121.698l-365.094 365.094z" />
<glyph unicode="&#xe939;" glyph-name="tick" d="M1009.41 750.058l-47.417 47.417c-19.536 19.533-51.424 19.533-71.128 0l-497.21-497.38-260.461 260.461c-19.533 19.536-51.424 19.536-71.126 0l-47.419-47.417c-19.533-19.536-19.533-51.424 0-71.126l343.276-343.274c9.852-9.852 22.539-14.861 35.396-14.861s25.712 5.009 35.398 14.861l580.189 580.191c20.035 19.867 20.035 51.59 0.502 71.128z" />
<glyph unicode="&#xe93a;" glyph-name="phone" d="M819.2-64c-90.688 0-187.136 25.696-286.72 76.384-91.808 46.752-182.464 113.664-262.24 193.536s-146.592 170.656-193.28 262.496c-50.592 99.648-76.288 196.096-76.288 286.784 0 58.784 54.784 115.552 78.272 137.216 33.856 31.168 87.104 67.584 125.792 67.584 19.264 0 41.792-12.608 71.008-39.616 21.76-20.16 46.272-47.52 70.816-79.040 14.784-19.040 88.576-116.288 88.576-162.912 0-38.24-43.264-64.864-89.024-92.992-17.728-10.848-36-22.112-49.216-32.704-14.144-11.328-16.64-17.312-17.056-18.624 48.576-121.152 197.12-269.664 318.208-318.208 1.088 0.352 7.072 2.72 18.592 17.056 10.592 13.216 21.856 31.552 32.704 49.216 28.16 45.76 54.72 89.024 92.992 89.024 46.656 0 143.872-73.792 162.912-88.576 31.552-24.512 58.88-49.056 79.040-70.816 27.040-29.184 39.616-51.776 39.616-71.008 0-38.72-36.416-92.096-67.52-126.112-21.696-23.648-78.496-78.688-137.28-78.688zM204.48 908.8c-13.728-0.256-50.624-17.056-90.784-54.016-38.080-35.136-61.792-73.28-61.792-99.584 0-344.512 423.104-768 767.296-768 26.272 0 64.416 23.808 99.52 62.112 37.024 40.352 53.824 77.408 54.080 91.2-1.632 9.728-28.576 47.552-102.24 104.288-63.328 48.736-114.688 74.912-127.904 75.2-0.928-0.256-6.656-2.464-18.272-17.216-10.080-12.864-20.896-30.4-31.392-47.424-28.672-46.656-55.744-90.72-95.136-90.72-6.336 0-12.608 1.216-18.592 3.648-134.4 53.76-293.312 212.672-347.072 347.072-6.464 16.128-7.488 41.408 24.256 70.208 16.896 15.296 40.256 29.632 62.88 43.584 16.992 10.432 34.624 21.248 47.424 31.392 14.752 11.616 16.96 17.344 17.216 18.272-0.352 13.216-26.464 64.576-75.2 127.904-56.736 73.664-94.56 100.544-104.288 102.24z" />
<glyph unicode="&#xe93b;" glyph-name="envelope" d="M896 652.8h-819.2c-42.336 0-76.8-34.464-76.8-76.8v-460.8c0-42.336 34.464-76.8 76.8-76.8h819.2c42.336 0 76.8 34.464 76.8 76.8v460.8c0 42.336-34.464 76.8-76.8 76.8zM896 601.6c1.536 0 2.976-0.16 4.448-0.416l-385.632-257.088c-14.848-9.888-41.92-9.888-56.768 0l-385.632 257.088c1.44 0.256 2.912 0.416 4.448 0.416h819.2zM896 89.6h-819.2c-14.144 0-25.6 11.456-25.6 25.6v438.592l378.432-252.256c15.936-10.592 36.352-15.936 56.768-15.936s40.864 5.312 56.768 15.936l378.432 252.256v-438.592c0-14.144-11.456-25.6-25.6-25.6z" />
<glyph unicode="&#xe93c;" glyph-name="rupee2" d="M854.4 822.4h-668.8c-22.4 0-41.6 19.2-41.6 41.6s19.2 41.6 41.6 41.6h668.8c22.4-3.2 41.6-19.2 41.6-41.6s-19.2-41.6-41.6-41.6zM630.4-9.6c-9.6 0-19.2 3.2-28.8 9.6l-377.6 355.2c-16 16-19.2 38.4-12.8 57.6s25.6 32 44.8 32h3.2c160-16 297.6 32 332.8 118.4 28.8 73.6-28.8 172.8-156.8 272-19.2 12.8-22.4 38.4-6.4 57.6 12.8 19.2 38.4 22.4 57.6 6.4 220.8-166.4 211.2-300.8 185.6-364.8-41.6-105.6-169.6-169.6-332.8-172.8l320-297.6c16-16 16-41.6 3.2-57.6-9.6-9.6-22.4-16-32-16zM822.4 598.4h-572.8c-22.4 0-41.6 19.2-41.6 41.6s19.2 41.6 41.6 41.6h572.8c22.4 0 41.6-19.2 41.6-41.6s-19.2-41.6-41.6-41.6z" />
<glyph unicode="&#xe93d;" glyph-name="goal" d="M552.773 447.999c0-22.522-18.258-40.78-40.78-40.78s-40.78 18.258-40.78 40.78c0 22.522 18.258 40.78 40.78 40.78s40.78-18.258 40.78-40.78zM43.698 404.3h330.187c24.138 0 43.698 19.56 43.698 43.698s-19.56 43.698-43.698 43.698h-330.187c-24.138 0.003-43.698-19.557-43.698-43.698s19.56-43.698 43.698-43.698zM555.691 916.293c0 24.138-19.56 43.698-43.698 43.698s-43.698-19.56-43.698-43.698v-330.187c0-24.138 19.56-43.698 43.698-43.698s43.698 19.56 43.698 43.698v330.187zM1024 447.999c0 24.138-19.56 43.698-43.698 43.698h-330.187c-24.138 0-43.698-19.56-43.698-43.698s19.56-43.698 43.698-43.698h330.187c24.121 0 43.698 19.56 43.698 43.698zM468.292-20.293c0-24.138 19.56-43.698 43.698-43.698s43.698 19.56 43.698 43.698v330.187c0 24.138-19.56 43.698-43.698 43.698s-43.698-19.56-43.698-43.698v-330.187z" />
<glyph unicode="&#xe93e;" glyph-name="google-plus" d="M785.86 491.662h-366.733v-122.245h223.744c-33.377-106.277-132.646-183.368-249.943-183.368-144.676 0-261.951 117.284-261.951 261.953 0 144.676 117.28 261.951 261.951 261.951 72.854 0 138.748-29.748 186.23-77.751l88.735 96.45c-70.868 69.442-167.905 112.275-274.965 112.275-217.007 0.002-392.928-175.919-392.928-392.926s175.921-392.932 392.93-392.932c190.092 0 356.522 134.999 392.932 314.344v122.245l-0.002 0.002zM1024 491.87h-75.013v75.013h-64.302v-75.013h-75.013v-64.295h75.013v-75.015h64.302v75.015h75.013z" />
<glyph unicode="&#xe93f;" glyph-name="lock" d="M768 512v192c0 141.152-114.848 256-256 256s-256-114.848-256-256v-192c-52.928 0-96-43.072-96-96v-384c0-52.928 43.072-96 96-96h512c52.928 0 96 43.072 96 96v384c0 52.928-43.072 96-96 96zM320 704c0 105.888 86.112 192 192 192s192-86.112 192-192v-192h-384v192zM800 32c0-17.664-14.368-32-32-32h-512c-17.632 0-32 14.336-32 32v384c0 17.664 14.368 32 32 32h512c17.632 0 32-14.336 32-32v-384zM544 247.136v72.864c0 17.696-14.336 32-32 32s-32-14.304-32-32v-72.864c-19.040-11.104-32-31.488-32-55.136 0-35.328 28.672-64 64-64s64 28.672 64 64c0 23.616-12.928 44.032-32 55.136z" />
<glyph unicode="&#xe940;" glyph-name="medibuddy-plus" d="M428.8 870.4c25.6 25.6 67.2 38.4 99.2 22.4 41.6-19.2 80-60.8 70.4-108.8 48 6.4 92.8-28.8 112-70.4 16-32 3.2-73.6-22.4-99.2-57.6-57.6-118.4-118.4-176-176-9.6 9.6-22.4 22.4-32 32 54.4 57.6 112 112 166.4 166.4 12.8 16 28.8 32 28.8 51.2 0 25.6-19.2 44.8-38.4 54.4-22.4 9.6-48-6.4-64-22.4-57.6-54.4-112-112-169.6-169.6-9.6 9.6-22.4 22.4-32 32 54.4 54.4 108.8 108.8 163.2 163.2 16 16 32 35.2 32 57.6 0 25.6-22.4 48-48 54.4-22.4 3.2-44.8-12.8-60.8-28.8-54.4-54.4-112-112-166.4-166.4-19.2 9.6-35.2 16-51.2 19.2 64 64 128 128 188.8 188.8v0zM147.2 620.8c22.4 28.8 54.4 54.4 92.8 51.2 28.8 0 51.2-19.2 70.4-38.4 121.6-121.6 243.2-243.2 361.6-361.6 19.2-19.2 41.6-38.4 70.4-28.8 22.4 9.6 44.8 32 41.6 57.6 0 22.4-16 38.4-32 54.4-48 48-96 96-144 144-6.4 6.4-16 12.8-16 22.4 9.6 9.6 19.2 19.2 28.8 28.8 51.2-54.4 105.6-105.6 156.8-156.8 12.8-12.8 25.6-25.6 44.8-32 38.4-12.8 80 32 67.2 70.4-6.4 12.8-16 25.6-25.6 38.4-54.4 54.4-112 112-166.4 166.4 9.6 12.8 16 25.6 16 41.6 6.4-3.2 16-9.6 22.4-16 57.6-57.6 115.2-112 169.6-169.6 25.6-25.6 38.4-64 22.4-96-19.2-41.6-64-80-112-73.6 9.6-54.4-38.4-105.6-89.6-118.4-32-6.4-64 12.8-86.4 35.2-124.8 124.8-249.6 249.6-374.4 374.4-16 12.8-32 28.8-54.4 25.6-28.8-6.4-57.6-35.2-51.2-67.2 3.2-19.2 19.2-32 32-44.8 54.4-54.4 108.8-105.6 160-160-9.6-9.6-22.4-22.4-32-32-54.4 54.4-105.6 105.6-160 160-16 16-32 32-54.4 35.2-25.6 0-48-19.2-57.6-41.6-9.6-25.6 9.6-51.2 28.8-67.2 54.4-54.4 108.8-108.8 166.4-166.4-9.6-12.8-16-28.8-19.2-44.8-54.4 54.4-108.8 108.8-163.2 163.2-22.4 22.4-48 44.8-54.4 80-6.4 38.4 22.4 73.6 51.2 96 19.2 16 41.6 19.2 67.2 16 0 12.8 6.4 38.4 22.4 54.4v0zM268.8 252.8c57.6 57.6 115.2 115.2 172.8 172.8 9.6-9.6 22.4-22.4 32-32-54.4-54.4-108.8-108.8-163.2-163.2-9.6-12.8-22.4-22.4-25.6-38.4-12.8-35.2 25.6-76.8 64-70.4 19.2 3.2 32 16 44.8 28.8 54.4 54.4 108.8 108.8 163.2 163.2 9.6-9.6 22.4-22.4 32-32-54.4-54.4-105.6-105.6-160-160-12.8-12.8-22.4-25.6-28.8-41.6-12.8-38.4 25.6-80 64-70.4 19.2 3.2 32 19.2 48 32 54.4 54.4 108.8 105.6 160 160 16-6.4 28.8-12.8 44.8-19.2-54.4-54.4-112-112-166.4-166.4-22.4-22.4-44.8-48-80-51.2-41.6-3.2-76.8 25.6-99.2 57.6-12.8 16-12.8 38.4-12.8 57.6-51.2-6.4-96 35.2-115.2 80-16 35.2 3.2 70.4 25.6 92.8v0zM902.4 828.8v-112h108.8v-28.8h-108.8v-112h-32v112h-108.8v28.8h108.8v112h32z" />
<glyph unicode="&#xe941;" glyph-name="medibuddy" d="M464 908.8c25.6 28.8 70.4 41.6 105.6 22.4 41.6-22.4 83.2-64 70.4-115.2 51.2 9.6 96-32 118.4-73.6 16-35.2 3.2-76.8-22.4-102.4-60.8-64-124.8-124.8-185.6-185.6-12.8 9.6-22.4 22.4-32 32 57.6 60.8 115.2 115.2 172.8 176 12.8 16 28.8 32 28.8 54.4 3.2 25.6-19.2 48-41.6 57.6-25.6 9.6-51.2-6.4-67.2-22.4-60.8-57.6-118.4-118.4-179.2-179.2-12.8 9.6-22.4 22.4-35.2 32 57.6 57.6 115.2 115.2 169.6 172.8 16 16 32 35.2 35.2 60.8-3.2 25.6-25.6 48-51.2 54.4-25.6 3.2-48-12.8-64-28.8-57.6-57.6-118.4-118.4-176-176-12.8 9.6-28.8 16-44.8 22.4 64 64 131.2 131.2 198.4 198.4v0zM163.2 646.4c22.4 28.8 57.6 57.6 99.2 54.4 28.8-3.2 54.4-22.4 73.6-44.8 128-128 256-256 384-384 19.2-19.2 44.8-41.6 73.6-32 22.4 9.6 44.8 32 44.8 60.8 0 22.4-19.2 41.6-32 57.6-51.2 51.2-102.4 102.4-150.4 150.4-6.4 6.4-19.2 12.8-16 22.4 9.6 12.8 19.2 19.2 32 28.8 54.4-54.4 112-112 166.4-166.4 12.8-12.8 28.8-28.8 48-35.2 41.6-12.8 86.4 32 73.6 73.6-6.4 16-16 28.8-28.8 38.4-57.6 57.6-118.4 115.2-176 176 6.4 16 12.8 32 12.8 48 9.6-6.4 16-9.6 22.4-19.2 60.8-60.8 121.6-118.4 179.2-179.2 25.6-25.6 41.6-67.2 25.6-102.4-19.2-44.8-67.2-86.4-118.4-76.8 9.6-57.6-41.6-112-96-124.8-35.2-6.4-67.2 12.8-89.6 38.4-131.2 131.2-262.4 262.4-393.6 393.6-12.8 16-35.2 32-57.6 28.8-32-6.4-60.8-38.4-54.4-70.4 6.4-19.2 19.2-35.2 32-48 57.6-57.6 112-112 169.6-169.6-12.8-12.8-22.4-22.4-35.2-32-54.4 57.6-112 112-169.6 169.6-16 16-35.2 32-57.6 35.2-25.6 0-51.2-22.4-57.6-44.8-9.6-28.8 9.6-54.4 28.8-70.4 57.6-57.6 115.2-115.2 172.8-176-9.6-16-16-28.8-22.4-44.8-57.6 57.6-115.2 115.2-172.8 172.8-25.6 22.4-51.2 48-57.6 83.2-6.4 41.6 22.4 80 54.4 102.4 25.6 12.8 51.2 19.2 76.8 16-3.2 25.6 0 51.2 16 70.4v0zM294.4 256c60.8 60.8 121.6 121.6 182.4 182.4 12.8-9.6 22.4-22.4 35.2-35.2-57.6-57.6-115.2-115.2-172.8-172.8-12.8-12.8-22.4-25.6-28.8-41.6-12.8-38.4 25.6-83.2 67.2-73.6 19.2 3.2 32 16 48 28.8 57.6 57.6 115.2 115.2 172.8 172.8 12.8-9.6 22.4-22.4 35.2-35.2-57.6-57.6-112-112-169.6-169.6-12.8-12.8-25.6-25.6-32-41.6-16-38.4 25.6-83.2 67.2-76.8 19.2 3.2 35.2 19.2 51.2 32 57.6 57.6 112 112 169.6 169.6 16-6.4 32-12.8 48-19.2-57.6-57.6-118.4-118.4-176-176-22.4-22.4-48-51.2-83.2-54.4-44.8-3.2-80 25.6-105.6 60.8-19.2 25.6-19.2 48-19.2 67.2-54.4-6.4-102.4 38.4-121.6 86.4-12.8 35.2 6.4 73.6 32 96v0z" />
</font>
</defs>
</svg>
